<svg viewBox="0 0 330 200" xmlns="http://www.w3.org/2000/svg"><g><g><g><g><g><line x1="70" y1="178" x2="65" y2="178" style="visibility: inherit;" fill="rgb(0, 0, 0)" stroke="rgb(204, 204, 204)" stroke-width="1px"></line><line x1="70" y1="164.30769230769232" x2="65" y2="164.30769230769232" style="visibility: inherit;" fill="rgb(0, 0, 0)" stroke="rgb(204, 204, 204)" stroke-width="1px"></line><line x1="70" y1="150.6153846153846" x2="65" y2="150.6153846153846" style="visibility: inherit;" fill="rgb(0, 0, 0)" stroke="rgb(204, 204, 204)" stroke-width="1px"></line><line x1="70" y1="136.9230769230769" x2="65" y2="136.9230769230769" style="visibility: inherit;" fill="rgb(0, 0, 0)" stroke="rgb(204, 204, 204)" stroke-width="1px"></line><line x1="70" y1="123.23076923076923" x2="65" y2="123.23076923076923" style="visibility: inherit;" fill="rgb(0, 0, 0)" stroke="rgb(204, 204, 204)" stroke-width="1px"></line><line x1="70" y1="109.53846153846155" x2="65" y2="109.53846153846155" style="visibility: inherit;" fill="rgb(0, 0, 0)" stroke="rgb(204, 204, 204)" stroke-width="1px"></line><line x1="70" y1="95.84615384615385" x2="65" y2="95.84615384615385" style="visibility: inherit;" fill="rgb(0, 0, 0)" stroke="rgb(204, 204, 204)" stroke-width="1px"></line><line x1="70" y1="82.15384615384616" x2="65" y2="82.15384615384616" style="visibility: inherit;" fill="rgb(0, 0, 0)" stroke="rgb(204, 204, 204)" stroke-width="1px"></line><line x1="70" y1="68.46153846153848" x2="65" y2="68.46153846153848" style="visibility: inherit;" fill="rgb(0, 0, 0)" stroke="rgb(204, 204, 204)" stroke-width="1px"></line><line x1="70" y1="54.769230769230774" x2="65" y2="54.769230769230774" style="visibility: inherit;" fill="rgb(0, 0, 0)" stroke="rgb(204, 204, 204)" stroke-width="1px"></line><line x1="70" y1="41.076923076923094" x2="65" y2="41.076923076923094" style="visibility: inherit;" fill="rgb(0, 0, 0)" stroke="rgb(204, 204, 204)" stroke-width="1px"></line><line x1="70" y1="27.384615384615387" x2="65" y2="27.384615384615387" style="visibility: inherit;" fill="rgb(0, 0, 0)" stroke="rgb(204, 204, 204)" stroke-width="1px"></line><line x1="70" y1="13.69230769230768" x2="65" y2="13.69230769230768" style="visibility: inherit;" fill="rgb(0, 0, 0)" stroke="rgb(204, 204, 204)" stroke-width="1px"></line><line x1="70" y1="0" x2="65" y2="0" style="visibility: inherit;" fill="rgb(0, 0, 0)" stroke="rgb(204, 204, 204)" stroke-width="1px"></line></g><g transform="translate(60, 0)"><text x="0" y="178" dx="0em" dy="0.3em" style="text-anchor: end; visibility: hidden; font-family: &quot;Helvetica Neue&quot;, sans-serif; font-size: 12px; font-weight: 200;" fill="rgb(50, 49, 63)" stroke="none" stroke-width="1px">-0.05</text><text x="0" y="164.30769230769232" dx="0em" dy="0.3em" style="text-anchor: end; visibility: inherit; font-family: &quot;Helvetica Neue&quot;, sans-serif; font-size: 12px; font-weight: 200;" fill="rgb(50, 49, 63)" stroke="none" stroke-width="1px">0</text><text x="0" y="150.6153846153846" dx="0em" dy="0.3em" style="text-anchor: end; visibility: hidden; font-family: &quot;Helvetica Neue&quot;, sans-serif; font-size: 12px; font-weight: 200;" fill="rgb(50, 49, 63)" stroke="none" stroke-width="1px">0.05</text><text x="0" y="136.9230769230769" dx="0em" dy="0.3em" style="text-anchor: end; visibility: inherit; font-family: &quot;Helvetica Neue&quot;, sans-serif; font-size: 12px; font-weight: 200;" fill="rgb(50, 49, 63)" stroke="none" stroke-width="1px">0.1</text><text x="0" y="123.23076923076923" dx="0em" dy="0.3em" style="text-anchor: end; visibility: hidden; font-family: &quot;Helvetica Neue&quot;, sans-serif; font-size: 12px; font-weight: 200;" fill="rgb(50, 49, 63)" stroke="none" stroke-width="1px">0.15</text><text x="0" y="109.53846153846155" dx="0em" dy="0.3em" style="text-anchor: end; visibility: inherit; font-family: &quot;Helvetica Neue&quot;, sans-serif; font-size: 12px; font-weight: 200;" fill="rgb(50, 49, 63)" stroke="none" stroke-width="1px">0.2</text><text x="0" y="95.84615384615385" dx="0em" dy="0.3em" style="text-anchor: end; visibility: hidden; font-family: &quot;Helvetica Neue&quot;, sans-serif; font-size: 12px; font-weight: 200;" fill="rgb(50, 49, 63)" stroke="none" stroke-width="1px">0.25</text><text x="0" y="82.15384615384616" dx="0em" dy="0.3em" style="text-anchor: end; visibility: inherit; font-family: &quot;Helvetica Neue&quot;, sans-serif; font-size: 12px; font-weight: 200;" fill="rgb(50, 49, 63)" stroke="none" stroke-width="1px">0.3</text><text x="0" y="68.46153846153848" dx="0em" dy="0.3em" style="text-anchor: end; visibility: hidden; font-family: &quot;Helvetica Neue&quot;, sans-serif; font-size: 12px; font-weight: 200;" fill="rgb(50, 49, 63)" stroke="none" stroke-width="1px">0.35</text><text x="0" y="54.769230769230774" dx="0em" dy="0.3em" style="text-anchor: end; visibility: inherit; font-family: &quot;Helvetica Neue&quot;, sans-serif; font-size: 12px; font-weight: 200;" fill="rgb(50, 49, 63)" stroke="none" stroke-width="1px">0.4</text><text x="0" y="41.076923076923094" dx="0em" dy="0.3em" style="text-anchor: end; visibility: hidden; font-family: &quot;Helvetica Neue&quot;, sans-serif; font-size: 12px; font-weight: 200;" fill="rgb(50, 49, 63)" stroke="none" stroke-width="1px">0.45</text><text x="0" y="27.384615384615387" dx="0em" dy="0.3em" style="text-anchor: end; visibility: inherit; font-family: &quot;Helvetica Neue&quot;, sans-serif; font-size: 12px; font-weight: 200;" fill="rgb(50, 49, 63)" stroke="none" stroke-width="1px">0.5</text><text x="0" y="13.69230769230768" dx="0em" dy="0.3em" style="text-anchor: end; visibility: hidden; font-family: &quot;Helvetica Neue&quot;, sans-serif; font-size: 12px; font-weight: 200;" fill="rgb(50, 49, 63)" stroke="none" stroke-width="1px">0.55</text><text x="0" y="0" dx="0em" dy="0.3em" style="text-anchor: end; visibility: hidden; font-family: &quot;Helvetica Neue&quot;, sans-serif; font-size: 12px; font-weight: 200;" fill="rgb(50, 49, 63)" stroke="none" stroke-width="1px">0.6</text></g><line x1="70" y1="0" x2="70" y2="178" fill="rgb(0, 0, 0)" stroke="rgb(204, 204, 204)" stroke-width="1px"></line></g></g><g transform="translate(70, 0)" clip-path="url(#clip_0)"><clipPath id="clip_0"><rect width="260" height="178"></rect></clipPath><g><g><g><line x1="0" y1="0" x2="0" y2="178" fill="rgb(0, 0, 0)" stroke="rgb(60, 60, 60)" stroke-width="1px" opacity="0.25"></line><line x1="21.666666666666664" y1="0" x2="21.666666666666664" y2="178" fill="rgb(0, 0, 0)" stroke="rgb(60, 60, 60)" stroke-width="1px" opacity="0.25"></line><line x1="43.33333333333333" y1="0" x2="43.33333333333333" y2="178" fill="rgb(0, 0, 0)" stroke="rgb(60, 60, 60)" stroke-width="1px" opacity="0.25"></line><line x1="65" y1="0" x2="65" y2="178" fill="rgb(0, 0, 0)" stroke="rgb(60, 60, 60)" stroke-width="1px" opacity="0.25"></line><line x1="86.66666666666666" y1="0" x2="86.66666666666666" y2="178" fill="rgb(0, 0, 0)" stroke="rgb(60, 60, 60)" stroke-width="1px" opacity="0.25"></line><line x1="108.33333333333334" y1="0" x2="108.33333333333334" y2="178" fill="rgb(0, 0, 0)" stroke="rgb(60, 60, 60)" stroke-width="1px" opacity="0.25"></line><line x1="130" y1="0" x2="130" y2="178" fill="rgb(0, 0, 0)" stroke="rgb(60, 60, 60)" stroke-width="1px" opacity="0.25"></line><line x1="151.66666666666669" y1="0" x2="151.66666666666669" y2="178" fill="rgb(0, 0, 0)" stroke="rgb(60, 60, 60)" stroke-width="1px" opacity="0.25"></line><line x1="173.33333333333331" y1="0" x2="173.33333333333331" y2="178" fill="rgb(0, 0, 0)" stroke="rgb(60, 60, 60)" stroke-width="1px" opacity="0.25"></line><line x1="195" y1="0" x2="195" y2="178" fill="rgb(0, 0, 0)" stroke="rgb(60, 60, 60)" stroke-width="1px" opacity="0.25"></line><line x1="216.66666666666669" y1="0" x2="216.66666666666669" y2="178" fill="rgb(0, 0, 0)" stroke="rgb(60, 60, 60)" stroke-width="1px" opacity="0.25"></line><line x1="238.33333333333331" y1="0" x2="238.33333333333331" y2="178" fill="rgb(0, 0, 0)" stroke="rgb(60, 60, 60)" stroke-width="1px" opacity="0.25"></line><line x1="260" y1="0" x2="260" y2="178" fill="rgb(0, 0, 0)" stroke="rgb(60, 60, 60)" stroke-width="1px" opacity="0.25"></line></g><g><line x1="0" y1="178" x2="260" y2="178" fill="rgb(0, 0, 0)" stroke="rgb(60, 60, 60)" stroke-width="1px" opacity="0.25"></line><line x1="0" y1="164.30769230769232" x2="260" y2="164.30769230769232" fill="rgb(0, 0, 0)" stroke="rgb(60, 60, 60)" stroke-width="1px" opacity="0.25"></line><line x1="0" y1="150.6153846153846" x2="260" y2="150.6153846153846" fill="rgb(0, 0, 0)" stroke="rgb(60, 60, 60)" stroke-width="1px" opacity="0.25"></line><line x1="0" y1="136.9230769230769" x2="260" y2="136.9230769230769" fill="rgb(0, 0, 0)" stroke="rgb(60, 60, 60)" stroke-width="1px" opacity="0.25"></line><line x1="0" y1="123.23076923076923" x2="260" y2="123.23076923076923" fill="rgb(0, 0, 0)" stroke="rgb(60, 60, 60)" stroke-width="1px" opacity="0.25"></line><line x1="0" y1="109.53846153846155" x2="260" y2="109.53846153846155" fill="rgb(0, 0, 0)" stroke="rgb(60, 60, 60)" stroke-width="1px" opacity="0.25"></line><line x1="0" y1="95.84615384615385" x2="260" y2="95.84615384615385" fill="rgb(0, 0, 0)" stroke="rgb(60, 60, 60)" stroke-width="1px" opacity="0.25"></line><line x1="0" y1="82.15384615384616" x2="260" y2="82.15384615384616" fill="rgb(0, 0, 0)" stroke="rgb(60, 60, 60)" stroke-width="1px" opacity="0.25"></line><line x1="0" y1="68.46153846153848" x2="260" y2="68.46153846153848" fill="rgb(0, 0, 0)" stroke="rgb(60, 60, 60)" stroke-width="1px" opacity="0.25"></line><line x1="0" y1="54.769230769230774" x2="260" y2="54.769230769230774" fill="rgb(0, 0, 0)" stroke="rgb(60, 60, 60)" stroke-width="1px" opacity="0.25"></line><line x1="0" y1="41.076923076923094" x2="260" y2="41.076923076923094" fill="rgb(0, 0, 0)" stroke="rgb(60, 60, 60)" stroke-width="1px" opacity="0.25"></line><line x1="0" y1="27.384615384615387" x2="260" y2="27.384615384615387" fill="rgb(0, 0, 0)" stroke="rgb(60, 60, 60)" stroke-width="1px" opacity="0.25"></line><line x1="0" y1="13.69230769230768" x2="260" y2="13.69230769230768" fill="rgb(0, 0, 0)" stroke="rgb(60, 60, 60)" stroke-width="1px" opacity="0.25"></line><line x1="0" y1="0" x2="260" y2="0" fill="rgb(0, 0, 0)" stroke="rgb(60, 60, 60)" stroke-width="1px" opacity="0.25"></line></g></g></g><g><g><line x1="0" y1="164.30769230769232" x2="260" y2="164.30769230769232" fill="rgb(0, 0, 0)" stroke="rgb(153, 153, 153)" stroke-width="1.5px"></line></g></g><g><g><line x1="21.666666666666664" y1="0" x2="21.666666666666664" y2="178" fill="rgb(0, 0, 0)" stroke="rgb(153, 153, 153)" stroke-width="1.5px"></line></g></g><g><g><g><g><g><path stroke="rgb(255, 112, 67)" stroke-width="2px" d="M22.1,161.56923083044015L22.533333333333335,159.85769240715757L22.966666666666665,162.1281005196753L23.4,160.61278288801753L23.833333333333332,158.6521327266358L24.26666666666667,159.87607627851398L24.7,161.69977457069737L25.133333333333333,162.76076218319284L25.566666666666666,163.38583351182086L26,161.55272373452559L26.433333333333334,162.65872369910312L26.866666666666667,161.1242016402251L27.3,162.3992632261345L27.733333333333334,162.06698988463017L28.166666666666668,161.86779260338355L28.6,160.65264049554028L29.03333333333333,161.01933869925637L29.466666666666665,162.3348137422191L29.900000000000002,163.12401325904963L30.333333333333332,159.21580362456683L30.766666666666666,157.96637791652435L31.2,160.50293705961516L31.633333333333336,160.92945793630943L32.06666666666667,160.08997852528728L32.5,158.49090571933667L32.93333333333334,156.43607848591566L33.36666666666667,158.4893415252204L33.800000000000004,157.53052747670444L34.23333333333333,160.2413944079362L34.666666666666664,160.77252909435782L35.1,161.09120983106195L35.53333333333333,159.09164888987323L35.96666666666667,158.98729707021613L36.400000000000006,160.02007060389593L36.833333333333336,161.7351193148974L37.266666666666666,160.57337931823093L37.699999999999996,158.78095073022018L38.13333333333333,158.80087817948132L38.56666666666667,161.0036038356732L39,162.32523922624753L39.43333333333334,160.92745127590263L39.86666666666666,161.18416309784118L40.3,160.2428055997081L40.733333333333334,160.77337569209283L41.166666666666664,159.99633315645013L41.6,159.5301076351162L42.03333333333333,159.25037232233444L42.46666666666667,159.0825311346721L42.9,158.98182642207712L43.33333333333333,160.0167881854307L22.1,160.63776524343749L22.533333333333335,160.80496685469316L22.966666666666665,160.69990319790006L23.4,160.77378805218314L23.833333333333332,160.4073498196766L24.26666666666667,160.7351790736078L24.7,161.13726124951236L25.133333333333333,160.283125964154L25.566666666666666,160.31833708838957L26,159.9286946178548L26.433333333333334,160.2426014309844L26.866666666666667,160.22556089531628L27.3,159.1884135582017L27.733333333333334,159.52458659645947L28.166666666666668,159.38398264549394L28.6,159.71038962402199L29.03333333333333,159.22161836531407L29.466666666666665,157.69604807284537L29.900000000000002,157.53378271434482L30.333333333333332,157.36796202607297L30.766666666666666,155.14616170044837L31.2,153.88154297824514L31.633333333333336,150.6581562623728L32.06666666666667,146.8756628249679L32.5,137.1438588417022L32.93333333333334,128.70323883897447L33.36666666666667,119.18886618443774L33.800000000000004,108.20870589300753L34.23333333333333,95.86983944273999L34.666666666666664,84.90651970315949L35.1,77.09621807782315L35.53333333333333,73.71080672513064L35.96666666666667,69.00956082757529L36.400000000000006,65.29881250556194L36.833333333333336,62.045439782530735L37.266666666666666,59.81957025602594L37.699999999999996,56.63558713224151L38.13333333333333,52.12366127745281L38.56666666666667,52.42881058412681L39,51.99574854183774L39.43333333333334,50.435141693955L39.86666666666666,50.38877836870549L40.3,49.128650591967755L40.733333333333334,47.82488214055286L41.166666666666664,51.15031272449613L41.6,53.62480301931309L42.03333333333333,52.507957951184636L42.46666666666667,50.67400423414132L42.9,49.98440410744507L43.33333333333333,51.966797224681045L43.766666666666666,56.6477698590208L44.2,59.86712227865384L44.63333333333333,66.59104338144168L45.06666666666667,66.65462733466522L45.5,68.81508500716696L45.93333333333333,70.1798194515893L46.36666666666667,70.10865933476254L46.8,67.12211828604055L47.233333333333334,61.63327084104431L47.666666666666664,56.491500966165034L48.1,53.68028493392359L48.53333333333334,49.73432506766804L48.96666666666666,45.929056579062376L49.4,41.31820213356647L49.833333333333336,46.424767042245975L50.266666666666666,48.735628150316586L50.7,53.75060779000074L51.13333333333333,58.40267092992791L51.56666666666667,59.96160229679671L52,61.102347168682826L52.43333333333333,60.21217857661911L52.86666666666667,59.06192253058684L53.3,56.11253865605681L53.733333333333334,56.80752463001433L54.16666666666667,52.70605245606694L54.6,49.492094579061956L55.03333333333333,48.52218047726038L55.46666666666667,42.32638468711306L55.9,42.374293134209495L56.333333333333336,38.295346547675166L56.766666666666666,37.08028511284209L57.2,38.062786713480676L57.63333333333334,39.063056512892985L58.06666666666666,38.84168071448207L58.5,40.0096248579448L58.93333333333333,37.90346604723899L59.36666666666667,39.104387059491046L59.800000000000004,38.318787257068664L60.233333333333334,41.20204119327036L60.666666666666664,41.49430098613905L61.099999999999994,41.875042913625094L61.53333333333333,43.40425769262603L61.96666666666667,47.40255448499559L62.4,48.7061489896729L62.833333333333336,49.35138274613621L63.26666666666667,47.27390670133869L63.699999999999996,43.35742198852029L64.13333333333334,40.665222162721335L64.56666666666666,39.18682521358505L65,37.13594036793705L65.43333333333332,36.932333190371395L65.86666666666667,37.70016966731217L66.3,37.27087076999646L66.73333333333333,39.40944462486084L67.16666666666667,36.03720549761499L67.60000000000001,32.98693829144432L68.03333333333333,36.63370235046517L68.46666666666665,34.919451918349836L68.9,34.37013360353163L69.33333333333333,33.62977377561148L69.76666666666667,35.10247912766218L70.2,34.274563877354126L70.63333333333334,37.26935475566805L71.06666666666666,37.902382606490164L71.5,37.25527558716021L71.93333333333334,37.62008921269933L72.36666666666666,37.565131495336686L72.80000000000001,38.90138632834967L73.23333333333333,39.15544744278523L73.66666666666667,37.459422703565025L74.1,36.578730806376L74.53333333333333,38.51493196673809L74.96666666666667,37.55434536238772L75.39999999999999,40.40107032285445L75.83333333333334,41.01371846388949L76.26666666666667,41.175924561246205L76.7,42.094785897718566L77.13333333333334,41.27686997167089L77.56666666666666,40.58073762877794L78,38.79382875961164L78.43333333333334,37.44783428092521L78.86666666666667,42.04870213551541L79.3,41.180759873427746L79.73333333333332,38.81153310829362L80.16666666666667,37.73230604732103L80.6,39.07015416496208L81.03333333333333,38.16132457400823L81.46666666666667,35.15141052076041L81.9,35.60469233572235L82.33333333333333,36.082047476464425L82.76666666666668,36.368460560909625L83.2,36.47184530615496L83.63333333333333,37.42387693678231L84.06666666666666,38.13201886150176L84.5,39.24151874804872L84.93333333333334,39.907218679976864L85.36666666666666,37.49971660685085L85.8,36.94521614645538L86.23333333333333,36.27020687211018L86.66666666666666,38.39827744709987L87.10000000000001,40.565120575573815L87.53333333333333,39.263687207639606L87.96666666666667,41.08436643189768L88.4,43.682926376226106L88.83333333333333,43.2566779885986L89.26666666666667,44.096315791267074L89.69999999999999,40.423943712654136L90.13333333333334,41.36975149587724L90.56666666666666,41.86877306038926L91,43.26357283434149L91.43333333333334,45.40121905672157L91.86666666666666,48.05303951808068L92.3,45.81028603279009L92.73333333333333,43.84847905082171L93.16666666666667,41.98678012992539L93.6,41.006683723730646L94.03333333333335,41.171703717150905L94.46666666666667,43.11917712108456L94.89999999999999,41.95996781111228L95.33333333333333,45.09828798723501L95.76666666666667,42.87358843811643L96.2,42.56569243846849L96.63333333333333,42.79172367770889L97.06666666666668,42.31118753045908L97.5,40.10594459330645L97.93333333333332,44.12279700289454L98.36666666666667,42.972908579227436L98.8,42.35143863044897L99.23333333333333,41.430861611309126L99.66666666666667,40.399286719874794L100.10000000000001,39.71187867959239L100.53333333333333,37.31404950119838L100.96666666666665,37.51843061477919L101.4,41.406441939611966L101.83333333333333,40.24771197051342L102.26666666666667,39.27862809636821L102.7,40.20333018165468L103.13333333333334,38.29353513415106L103.56666666666666,39.680737509746166L104,41.06075072047551L104.43333333333334,40.451066078060705L104.86666666666666,41.38602491512117L105.30000000000001,41.467768272906454L105.73333333333333,38.572969308951684L106.16666666666667,39.16378001841073L106.6,41.435190957389494L107.03333333333333,40.88111300747343L107.46666666666667,41.50713012642575L107.89999999999999,42.156586290483204L108.33333333333334,41.38241331275148L108.76666666666667,41.67098736324948L109.2,41.09105395641123L109.63333333333334,41.63309469578843L110.06666666666666,43.259088761924005L110.5,45.05622287966369L110.93333333333334,47.84604181184599L111.36666666666667,46.849934085215494L111.8,45.019959667649175L112.23333333333332,39.814283362317155L112.66666666666667,41.48318396562544L113.1,42.2791415403461L113.53333333333333,40.36056289192476L113.96666666666667,38.66172391749973L114.4,39.217032783539565L114.83333333333333,37.63329685436068L115.26666666666668,39.35305438279323L115.7,39.700294168137475L116.13333333333333,39.49786920031485L116.56666666666666,40.12949205675838L117,40.50846577062447L117.43333333333334,38.61353943387596L117.86666666666666,41.173509712090436L118.3,41.20333620474497L118.73333333333333,38.96200185342698L119.16666666666666,41.38258716382106L119.60000000000001,41.8080146202343L120.03333333333333,44.322501340992915L120.46666666666667,43.77734591380175L120.9,42.01256008863467L121.33333333333333,42.59676721415164L121.76666666666667,41.646521866952526L122.19999999999999,45.45791220611136L122.63333333333334,43.63705475481447L123.06666666666666,38.7791543628515L123.5,39.766722995201604L123.93333333333334,39.94849533558249L124.36666666666666,38.893712063644784L124.8,39.01391993761928L125.23333333333333,37.99066109125951L125.66666666666667,38.47208935418806L126.1,38.350177472916045L126.53333333333335,41.01549253551448L126.96666666666667,39.39698743726092L127.39999999999999,41.64357851412143L127.83333333333333,42.786147108472846L128.26666666666668,42.992456320632755L128.7,42.22624432894912L129.13333333333333,41.013439296801835L129.56666666666666,40.080370225748624L130,40.13668367391071L130.43333333333334,40.718163528180156L130.86666666666665,42.02551206514326L131.3,40.0029991550382L131.73333333333335,39.063337301661306L132.16666666666666,39.59492702488009L132.6,41.420033268585L133.03333333333336,39.91355776978935L133.46666666666667,38.804289683247646L133.9,39.98719023920415L134.33333333333334,40.62846746735627L134.76666666666665,43.82015583653043L135.20000000000002,41.07978541787051L135.63333333333333,40.73633278918385L136.06666666666666,42.65256851253946L136.5,44.897693517297284L136.9333333333333,46.518617677338625L137.36666666666667,48.31270985142177L137.8,51.57993229736054L138.23333333333332,53.6087288703456L138.66666666666666,50.30754632031527L139.1,48.66914252390444L139.53333333333333,48.37071497777322L139.96666666666667,50.38242885608392L140.4,49.67253266976701L140.83333333333331,50.61582768590796L141.26666666666668,50.36026701753421L141.70000000000002,46.51000780074693L142.13333333333333,43.30985148719441L142.56666666666666,43.92283383865973L143,44.632932247646806L143.43333333333334,46.15437486378349L143.86666666666667,41.86416194342834L144.3,41.54926770262642L144.73333333333332,43.277252406948094L145.16666666666666,44.04019733685496L145.60000000000002,43.060271725946734L146.03333333333333,41.03462379054943L146.46666666666667,38.4500055658805L146.89999999999998,38.61077309261765L147.33333333333334,38.50184755689503L147.76666666666668,39.942647909735626L148.2,40.67020517509695L148.63333333333333,40.2167387508336L149.06666666666666,41.31388835970617L149.5,39.16525609274677L149.93333333333334,38.62915456970819L150.36666666666667,39.88210917108049L150.79999999999998,38.92234347036538L151.23333333333332,37.18263737377009L151.66666666666669,37.987275123694445L152.1,41.48236585769678L152.53333333333333,40.6355720549717L152.96666666666667,44.16672758720759L153.4,43.341575927923174L153.83333333333334,41.340329258078356L154.26666666666668,43.220352445641026L154.7,44.2114434118356L155.13333333333333,41.72532680208275L155.5666666666667,39.54904210451579L156,38.585580284083505L156.43333333333334,41.019811275871916L156.86666666666667,37.00342548822164L157.29999999999998,38.016670938708415L157.73333333333335,37.80308053094217L158.16666666666666,38.42800085891892L158.6,39.69295383918512L159.03333333333333,41.068080518138856L159.46666666666664,39.22315743957125L159.9,39.896201894890424L160.33333333333334,38.725413052886495L160.76666666666665,38.776017584821204L161.2,40.312532713755644L161.63333333333335,42.19290568001824L162.06666666666666,41.883436890923434L162.5,41.97160151015268L162.93333333333334,44.0098846359148L163.36666666666665,43.521316049833615L163.8,47.267403447555296L164.23333333333335,46.16044206853317L164.66666666666666,42.6208801034152L165.1,42.55099038399081L165.53333333333336,41.619055768856015L165.96666666666667,40.78604910708904L166.4,42.20316635883162L166.83333333333334,44.08036043970034L167.26666666666665,45.75436867359383L167.70000000000002,45.868776094950306L168.13333333333333,44.020496034460905L168.56666666666666,43.93845172799044L169,45.669223446567855L169.4333333333333,45.54384306604862L169.86666666666667,41.771692021974076L170.3,41.42532264433211L170.73333333333332,42.17596164214831L171.16666666666666,43.10557698528899L171.6,41.267192997919665L172.03333333333333,40.57493144452721L172.46666666666667,42.89803670385339L172.9,42.71728434425373L173.33333333333331,42.60883292849388L173.76666666666668,44.46068332784077L174.20000000000002,42.559485483401176L174.63333333333333,41.555689723080434L175.06666666666666,43.28110561922048L175.5,42.67327980078784L175.93333333333334,42.85627609510047L176.36666666666667,44.677612333226534L176.8,46.11271980970952L177.23333333333332,41.63378612371963L177.66666666666666,44.56027324119205L178.10000000000002,43.03001153494162L178.53333333333333,42.86492908382789L178.96666666666667,42.90280255950273L179.39999999999998,41.07706523702609L179.83333333333334,39.43393105816787L180.26666666666668,38.17420465816687L180.7,38.8560613870186L181.13333333333333,41.25055977855422L181.56666666666666,41.04418345735891L182,41.67343223727829L182.43333333333334,40.54482909545629L182.86666666666667,40.96305078110754L183.29999999999998,34.573212733608756L183.73333333333332,37.72238996210692L184.16666666666669,38.584972569382614L184.6,41.56713843242363L185.03333333333333,38.97489713826934L185.46666666666667,40.22647765856024L185.9,40.498194026283784L186.33333333333334,41.619684471319346L186.76666666666668,39.896425545086885L187.2,40.77939470265076L187.63333333333333,42.199173716168644L188.0666666666667,43.7356591204952L188.5,43.699086474189215L188.93333333333334,43.334837152798286L189.36666666666667,43.04782445454188L189.79999999999998,42.944079941009875L190.23333333333335,43.908756962713824L190.66666666666666,42.228329664324974L191.1,39.78238398093984L191.53333333333333,41.121738603191716L191.96666666666664,43.08919805270904L192.4,43.58505572620365L192.83333333333334,45.594108791838835L193.26666666666665,42.554926030084715L193.7,39.90987869497391L194.13333333333335,42.08823621509225L194.56666666666666,40.246019696772436L195,39.82530451749585L195.43333333333334,38.95672051913587L195.86666666666665,39.66787990170789L196.3,38.519960016055705L196.73333333333335,40.090438331575086L197.16666666666666,39.59503275203437L197.6,40.18779018779006L198.03333333333336,37.05190462074478L198.46666666666667,36.744988795713L198.9,37.930068764124485L199.33333333333334,40.01034947310245L199.76666666666665,40.026208116901216L200.20000000000002,38.666493839749904L200.63333333333333,37.43989643442998L201.06666666666666,35.60855442049356L201.5,38.75436381326696L201.9333333333333,39.82031177087268L202.36666666666667,38.47449619121156L202.8,36.777006059934735L203.23333333333332,38.22312827984419L203.66666666666666,36.694645154035555L204.1,36.80447900837359L204.53333333333333,36.596533428290286L204.96666666666667,38.93638237891585L205.4,40.47721469563422L205.83333333333331,40.511713302185115L206.26666666666668,42.175491086732876L206.70000000000002,40.22990951433502L207.13333333333333,41.18486787146395L207.56666666666666,39.08784379980145L208,39.06193587389143L208.43333333333334,40.89485252622694L208.86666666666667,38.02383380917911L209.3,39.5873765556843L209.73333333333332,41.07319398895959L210.16666666666666,41.553915609895625L210.60000000000002,42.04773463422208L211.03333333333333,42.07018015613187L211.46666666666667,42.63133925464996L211.89999999999998,41.1195733058793L212.33333333333334,41.71866614639049L212.76666666666668,40.84581533360972L213.2,38.13133443995184L213.63333333333333,39.788799880490984L214.06666666666666,39.00328084235474L214.5,39.4904300438744L214.93333333333334,38.61887288861993L215.36666666666667,40.62901473506403L215.79999999999998,43.95741040799868L216.23333333333332,43.558291354005206L216.66666666666669,45.646513273941565L217.1,43.5448326082483L217.53333333333333,42.07843815706747L217.96666666666667,41.19860148635897L218.4,40.67069948393387L218.83333333333334,39.39549765807743L219.26666666666668,41.163452702160356L219.7,40.99191921152257L220.13333333333333,41.09438190440426L220.5666666666667,40.12893579031004L221,41.94582457960786L221.43333333333334,41.73518823067721L221.86666666666667,38.93880407087843L222.29999999999998,41.84789717424232L222.73333333333335,43.524893195339416L223.16666666666666,43.504167078174476L223.6,41.0271151092L224.03333333333333,38.71934624975697L224.46666666666664,39.046223395629596L224.9,40.06388736121153L225.33333333333334,40.12679395518845L225.76666666666665,41.19146164139781L226.2,43.33641466289703L226.63333333333335,39.899539930210324L227.06666666666666,41.67126085270442L227.5,42.32352456717169L227.93333333333334,41.00334433431357L228.36666666666665,39.66354440922649L228.8,38.517358720566875L229.23333333333335,40.29426034154608L229.66666666666666,40.19655463796741L230.1,38.56331896512532L230.53333333333336,41.759529057133506L230.96666666666667,41.5549478117708L231.4,40.81604417375917L231.83333333333334,38.113471744041505L232.26666666666665,39.983468314709626L232.70000000000002,38.298540960327045L233.13333333333333,40.43681557808833L233.56666666666666,39.529013207256185L234,39.18971457202122L234.4333333333333,40.355368118811356L234.86666666666667,40.02783651706224L235.3,41.06362407310027L235.73333333333332,39.76817535792031L236.16666666666666,39.127829075155404L236.6,34.97823538431163L237.03333333333333,36.25386509099019L237.46666666666667,36.129242131517174L237.9,37.90292976371492L238.33333333333331,41.0894496436012L238.76666666666668,38.825206811318935L239.20000000000002,39.9997405160469L239.63333333333333,39.74599684998179L240.06666666666666,41.57913500456726L240.5,41.720557272917176L240.93333333333334,37.629255873713134L241.36666666666667,42.089091985766345L241.8,42.505763406087596L242.23333333333332,40.08576717234047L242.66666666666666,38.565306326670424L243.10000000000002,39.15918222904196L243.53333333333333,37.735509468005205L243.96666666666667,34.964381298079815L244.39999999999998,38.98401483061272L244.83333333333334,37.63040902894767L245.26666666666668,37.77670617235L245.7,39.30217702724377L246.13333333333333,38.505921078641535L246.56666666666666,37.480475724108004L247,36.79674540596608L247.43333333333334,35.428046590679514L247.86666666666667,37.41375259829104L248.29999999999998,37.23594347492687L248.73333333333332,39.93618003319125" style="fill: none;" fill="none"></path></g></g></g></g><g opacity="0.2"><g><g><g><path stroke="rgb(255, 112, 67)" stroke-width="2px" d="M22.1,161.56923083044015L22.533333333333335,158.830769353188L22.966666666666665,164.30769230769232L23.4,158.830769353188L23.833333333333332,156.09230787593586L24.26666666666667,161.56923083044015L24.7,164.30769230769232L25.133333333333333,164.30769230769232L25.566666666666666,164.30769230769232L26,158.830769353188L26.433333333333334,164.30769230769232L26.866666666666667,158.830769353188L27.3,164.30769230769232L27.733333333333334,161.56923083044015L28.166666666666668,161.56923083044015L28.6,158.830769353188L29.03333333333333,161.56923083044015L29.466666666666665,164.30769230769232L29.900000000000002,164.30769230769232L30.333333333333332,153.3538463986837L30.766666666666666,156.09230787593586L31.2,164.30769230769232L31.633333333333336,161.56923083044015L32.06666666666667,158.830769353188L32.5,156.09230787593586L32.93333333333334,153.3538463986837L33.36666666666667,161.56923083044015L33.800000000000004,156.09230787593586L34.23333333333333,164.30769230769232L34.666666666666664,161.56923083044015L35.1,161.56923083044015L35.53333333333333,156.09230787593586L35.96666666666667,158.830769353188L36.400000000000006,161.56923083044015L36.833333333333336,164.30769230769232L37.266666666666666,158.830769353188L37.699999999999996,156.09230787593586L38.13333333333333,158.830769353188L38.56666666666667,164.30769230769232L39,164.30769230769232L39.43333333333334,158.830769353188L39.86666666666666,161.56923083044015L40.3,158.830769353188L40.733333333333334,161.56923083044015L41.166666666666664,158.830769353188L41.6,158.830769353188L42.03333333333333,158.830769353188L42.46666666666667,158.830769353188L42.9,158.830769353188L43.33333333333333,161.56923083044015L22.1,161.56923083044015L22.533333333333335,161.05576927157549L22.966666666666665,160.54230771271082L23.4,160.88461533360757L23.833333333333332,159.85769247091733L24.26666666666667,161.22692295450432L24.7,161.74038451336898L25.133333333333333,159.0019230361168L25.566666666666666,160.3711537747429L26,159.34423091205267L26.433333333333334,160.71346165067874L26.866666666666667,160.20000009181408L27.3,157.63269255252985L27.733333333333334,160.02884615384616L28.166666666666668,159.17307671904564L28.6,160.20000009181408L29.03333333333333,158.48846147725214L29.466666666666665,155.40769263414236L29.900000000000002,157.290384676594L30.333333333333332,157.11923099366518L30.766666666666666,151.81346121201148L31.2,151.9846148949403L31.633333333333336,145.8230761885643L32.06666666666667,141.2019226688605L32.5,122.54615286680368L32.93333333333334,116.04230883488289L33.36666666666667,104.91730720263261L33.800000000000004,91.7384654558622L34.23333333333333,77.36153976733868L34.666666666666664,68.46154009378876L35.1,65.38076563981863L35.53333333333333,68.63268969609189L35.96666666666667,61.95769198124226L36.400000000000006,59.73269002254193L36.833333333333336,57.16538069798398L37.266666666666666,56.480765966268706L37.699999999999996,51.85961244656491L38.13333333333333,45.355772495269775L38.56666666666667,52.88653454413782L39,51.34615547840413L39.43333333333334,48.09423142213089L39.86666666666666,50.31923338083121L40.3,47.238458926861114L40.733333333333334,45.86922946343057L41.166666666666664,56.13845860041107L41.6,57.33653846153848L42.03333333333333,50.832690348992L42.46666666666667,47.923073658576385L42.9,48.950003917400664L43.33333333333333,54.940386900535L43.766666666666666,63.669228810530456L44.2,64.69615090810336L44.63333333333333,76.67692503562341L45.06666666666667,66.75000326450055L45.5,72.05577151591962L45.93333333333333,72.22692111822275L46.36666666666667,70.00191915952243L46.8,62.64230671295755L47.233333333333334,53.39999967354996L47.666666666666664,48.77884615384616L48.1,49.46346088556143L48.53333333333334,43.81538526828473L48.96666666666666,40.22115384615384L49.4,34.40192046532263L49.833333333333336,54.08461440526523L50.266666666666666,52.201919812422545L50.7,61.27307724952698L51.13333333333333,65.38076563981863L51.56666666666667,62.29999934709991L52,62.81346447651204L52.43333333333333,58.87692568852353L52.86666666666667,57.33653846153848L53.3,51.68846284426178L53.733333333333334,57.85000359095062L54.16666666666667,46.55384419514584L54.6,44.671157763554504L55.03333333333333,47.06730932455798L55.46666666666667,33.03269100189209L55.9,42.446155804854186L56.333333333333336,32.17692666787366L56.766666666666666,35.25769296059241L57.2,39.53653911443857L57.63333333333334,40.563461212011475L58.06666666666666,38.50961701686563L58.5,41.761541073138915L58.93333333333333,34.74422783118027L59.36666666666667,40.90576857786911L59.800000000000004,37.14038755343509L60.233333333333334,45.526922097572935L60.666666666666664,41.932690675442046L61.099999999999994,42.446155804854186L61.53333333333333,45.69807986112741L61.96666666666667,53.39999967354996L62.4,50.66154074668884L62.833333333333336,50.31923338083121L63.26666666666667,44.157692634142364L63.699999999999996,37.482694919292726L64.13333333333334,36.62692242402295L64.56666666666666,36.969229789880586L65,34.059613099465L65.43333333333332,36.62692242402295L65.86666666666667,38.8519243827233L66.3,36.62692242402295L66.73333333333333,42.61730540715732L67.16666666666667,30.978846806746247L67.60000000000001,28.411537482188294L68.03333333333333,42.10384843899655L68.46666666666665,32.34807627017679L68.9,33.54615613130423L69.33333333333333,32.519234033731294L69.76666666666667,37.31153715573822L70.2,33.03269100189209L70.63333333333334,41.761541073138915L71.06666666666666,38.8519243827233L71.5,36.284615058165315L71.93333333333334,38.167309651008L72.36666666666666,37.482694919292726L72.80000000000001,40.90576857786911L73.23333333333333,39.53653911443857L73.66666666666667,34.91538559473477L74.1,35.25769296059241L74.53333333333333,41.41923370728128L74.96666666666667,36.11346545586218L75.39999999999999,44.671157763554504L75.83333333333334,41.932690675442046L76.26666666666667,41.41923370728128L76.7,43.47307790242709L77.13333333333334,40.049996082599336L77.56666666666666,39.53653911443857L78,36.11346545586218L78.43333333333334,35.42884256289554L78.86666666666667,48.950003917400664L79.3,39.878846480296204L79.73333333333332,35.25769296059241L80.16666666666667,36.11346545586218L80.6,41.07692634142364L81.03333333333333,36.798080187577455L81.46666666666667,30.636539440888612L81.9,36.284615058165315L82.33333333333333,36.798080187577455L82.76666666666668,36.798080187577455L83.2,36.62692242402295L83.63333333333333,38.8519243827233L84.06666666666666,39.19423174858093L84.5,40.90576857786911L84.93333333333334,40.90576857786911L85.36666666666666,33.888463497161865L85.8,36.11346545586218L86.23333333333333,35.25769296059241L86.66666666666666,41.59038330958441L87.10000000000001,43.81538526828473L87.53333333333333,37.31153715573822L87.96666666666667,43.81538526828473L88.4,47.58076629271875L88.83333333333333,42.61730540715732L89.26666666666667,45.355772495269775L89.69999999999999,34.91538559473477L90.13333333333334,42.78846317071182L90.56666666666666,42.61730540715732L91,45.355772495269775L91.43333333333334,48.607688390291656L91.86666666666666,52.030770210119414L92.3,42.446155804854186L92.73333333333333,40.90576857786911L93.16666666666667,39.19423174858093L93.6,39.53653911443857L94.03333333333335,41.41923370728128L94.46666666666667,46.040387226985075L94.89999999999999,40.22115384615384L95.33333333333333,49.80576825141907L95.76666666666667,39.53653911443857L96.2,42.10384843899655L96.63333333333333,43.13077053656946L97.06666666666668,41.59038330958441L97.5,36.798080187577455L97.93333333333332,50.1480756172767L98.36666666666667,41.248075943726775L98.8,41.41923370728128L99.23333333333333,40.049996082599336L99.66666666666667,38.8519243827233L100.10000000000001,38.68076661916879L100.53333333333333,33.71730573360736L100.96666666666665,37.82500228515036L101.4,47.238458926861114L101.83333333333333,38.50961701686563L102.26666666666667,37.82500228515036L102.7,41.59038330958441L103.13333333333334,35.42884256289554L103.56666666666666,41.761541073138915L104,43.13077053656946L104.43333333333334,39.53653911443857L104.86666666666666,42.78846317071182L105.30000000000001,41.59038330958441L105.73333333333333,34.2307708630195L106.16666666666667,40.049996082599336L106.6,44.842307365857636L107.03333333333333,40.049996082599336L107.46666666666667,42.446155804854186L107.89999999999999,43.13077053656946L108.33333333333334,40.22115384615384L108.76666666666667,42.10384843899655L109.2,40.22115384615384L109.63333333333334,42.446155804854186L110.06666666666666,45.69807986112741L110.5,47.75192405627325L110.93333333333334,52.030770210119414L111.36666666666667,45.355772495269775L111.8,42.27499804129968L112.23333333333332,32.005768904319154L112.66666666666667,43.98653487058786L113.1,43.47307790242709L113.53333333333333,37.482694919292726L113.96666666666667,36.11346545586218L114.4,40.049996082599336L114.83333333333333,35.25769296059241L115.26666666666668,41.932690675442046L115.7,40.22115384615384L116.13333333333333,39.19423174858093L116.56666666666666,41.07692634142364L117,41.07692634142364L117.43333333333334,35.771149928753175L117.86666666666666,45.01346512941214L118.3,41.248075943726775L118.73333333333333,35.60000032645004L119.16666666666666,45.01346512941214L119.60000000000001,42.446155804854186L120.03333333333333,48.09423142213089L120.46666666666667,42.95961277301495L120.9,39.365381350884064L121.33333333333333,43.47307790242709L121.76666666666667,40.22115384615384L122.19999999999999,51.17499771484964L122.63333333333334,40.90576857786911L123.06666666666666,31.492303774907015L123.5,41.248075943726775L123.93333333333334,40.22115384615384L124.36666666666666,37.31153715573822L124.8,39.19423174858093L125.23333333333333,36.45577282171982L125.66666666666667,39.19423174858093L126.1,38.167309651008L126.53333333333335,45.01346512941214L126.96666666666667,36.969229789880586L127.39999999999999,45.01346512941214L127.83333333333333,44.5L128.26666666666668,43.30192013887259L128.7,41.07692634142364L129.13333333333333,39.19423174858093L129.56666666666666,38.68076661916879L130,40.22115384615384L130.43333333333334,41.59038330958441L130.86666666666665,43.98653487058786L131.3,36.969229789880586L131.73333333333335,37.65384452159586L132.16666666666666,40.392311609708344L132.6,44.157692634142364L133.03333333333336,37.65384452159586L133.46666666666667,37.14038755343509L133.9,41.761541073138915L134.33333333333334,41.59038330958441L134.76666666666665,48.607688390291656L135.20000000000002,36.969229789880586L135.63333333333333,40.22115384615384L136.06666666666666,45.526922097572935L136.5,48.26538102443402L136.9333333333333,48.950003917400664L137.36666666666667,51.00384811254648L137.8,56.480765966268706L138.23333333333332,56.651923729823196L138.66666666666666,45.355772495269775L139.1,46.21153682928821L139.53333333333333,47.923073658576385L139.96666666666667,53.39999967354996L140.4,48.607688390291656L140.83333333333331,52.030770210119414L141.26666666666668,49.97692601497357L141.70000000000002,40.73461897556598L142.13333333333333,38.50961701686563L142.56666666666666,44.842307365857636L143,45.69807986112741L143.43333333333334,48.436538787988525L143.86666666666667,35.42884256289554L144.3,41.07692634142364L144.73333333333332,45.86922946343057L145.16666666666666,45.1846147317153L145.60000000000002,41.59038330958441L146.03333333333333,37.99615188745352L146.46666666666667,34.57307822887714L146.89999999999998,38.8519243827233L147.33333333333334,38.33845925331116L147.76666666666668,42.10384843899655L148.2,41.761541073138915L148.63333333333333,39.53653911443857L149.06666666666666,42.95961277301495L149.5,35.94230769230768L149.93333333333334,37.82500228515036L150.36666666666667,41.761541073138915L150.79999999999998,37.482694919292726L151.23333333333332,34.57307822887714L151.66666666666669,39.19423174858093L152.1,46.72500195870035L152.53333333333333,39.365381350884064L152.96666666666667,49.46346088556143L153.4,42.10384843899655L153.83333333333334,38.33845925331116L154.26666666666668,46.040387226985075L154.7,45.69807986112741L155.13333333333333,37.99615188745352L155.5666666666667,36.284615058165315L156,37.14038755343509L156.43333333333334,44.671157763554504L156.86666666666667,30.978846806746247L157.29999999999998,39.53653911443857L157.73333333333335,37.482694919292726L158.16666666666666,39.365381350884064L158.6,41.59038330958441L159.03333333333333,43.13077053656946L159.46666666666664,36.45577282171982L159.9,40.90576857786911L160.33333333333334,36.969229789880586L160.76666666666665,38.8519243827233L161.2,42.61730540715732L161.63333333333335,45.01346512941214L162.06666666666666,41.41923370728128L162.5,42.10384843899655L162.93333333333334,47.06730932455798L163.36666666666665,42.78846317071182L163.8,52.88653454413782L164.23333333333335,44.5L164.66666666666666,37.31153715573822L165.1,42.446155804854186L165.53333333333336,40.22115384615384L165.96666666666667,39.53653911443857L166.4,44.328842236445524L166.83333333333334,46.89615156100348L167.26666666666665,48.26538102443402L167.70000000000002,46.040387226985075L168.13333333333333,41.248075943726775L168.56666666666666,43.81538526828473L169,48.26538102443402L169.4333333333333,45.355772495269775L169.86666666666667,36.11346545586218L170.3,40.90576857786911L170.73333333333332,43.30192013887259L171.16666666666666,44.5L171.6,38.50961701686563L172.03333333333333,39.53653911443857L172.46666666666667,46.38269459284271L172.9,42.446155804854186L173.33333333333331,42.446155804854186L173.76666666666668,47.238458926861114L174.20000000000002,39.7076887167417L174.63333333333333,40.049996082599336L175.06666666666666,45.86922946343057L175.5,41.761541073138915L175.93333333333334,43.13077053656946L176.36666666666667,47.40961669041562L176.8,48.26538102443402L177.23333333333332,34.91538559473477L177.66666666666666,48.950003917400664L178.10000000000002,40.73461897556598L178.53333333333333,42.61730540715732L178.96666666666667,42.95961277301495L179.39999999999998,38.33845925331116L179.83333333333334,36.969229789880586L180.26666666666668,36.284615058165315L180.7,39.878846480296204L181.13333333333333,44.842307365857636L181.56666666666666,40.73461897556598L182,42.61730540715732L182.43333333333334,38.8519243827233L182.86666666666667,41.59038330958441L183.29999999999998,24.988455662360536L183.73333333333332,42.446155804854186L184.16666666666669,39.878846480296204L184.6,46.040387226985075L185.03333333333333,35.086535197037904L185.46666666666667,42.10384843899655L185.9,40.90576857786911L186.33333333333334,43.30192013887259L186.76666666666668,37.31153715573822L187.2,42.10384843899655L187.63333333333333,44.328842236445524L188.0666666666667,46.040387226985075L188.5,43.644227504730225L188.93333333333334,42.78846317071182L189.36666666666667,42.61730540715732L189.79999999999998,42.78846317071182L190.23333333333335,45.355772495269775L190.66666666666666,39.7076887167417L191.1,36.11346545586218L191.53333333333333,43.13077053656946L191.96666666666664,46.040387226985075L192.4,44.328842236445524L192.83333333333334,48.607688390291656L193.26666666666665,37.99615188745352L193.7,35.94230769230768L194.13333333333335,45.355772495269775L194.56666666666666,37.482694919292726L195,39.19423174858093L195.43333333333334,37.65384452159586L195.86666666666665,40.73461897556598L196.3,36.798080187577455L196.73333333333335,42.446155804854186L197.16666666666666,38.8519243827233L197.6,41.07692634142364L198.03333333333336,32.34807627017679L198.46666666666667,36.284615058165315L198.9,39.7076887167417L199.33333333333334,43.13077053656946L199.76666666666665,40.049996082599336L200.20000000000002,36.62692242402295L200.63333333333333,35.60000032645004L201.06666666666666,32.86154139958893L201.5,43.47307790242709L201.9333333333333,41.41923370728128L202.36666666666667,36.45577282171982L202.8,34.2307708630195L203.23333333333332,40.392311609708344L203.66666666666666,34.40192046532263L204.1,36.969229789880586L204.53333333333333,36.284615058165315L204.96666666666667,42.446155804854186L205.4,42.78846317071182L205.83333333333331,40.563461212011475L206.26666666666668,44.671157763554504L206.70000000000002,37.31153715573822L207.13333333333333,42.61730540715732L207.56666666666666,35.94230769230768L208,39.02307398502643L208.43333333333334,43.644227504730225L208.86666666666667,33.71730573360736L209.3,41.932690675442046L209.73333333333332,43.30192013887259L210.16666666666666,42.27499804129968L210.60000000000002,42.78846317071182L211.03333333333333,42.10384843899655L211.46666666666667,43.47307790242709L211.89999999999998,38.8519243827233L212.33333333333334,42.61730540715732L212.76666666666668,39.53653911443857L213.2,34.059613099465L213.63333333333333,42.27499804129968L214.06666666666666,37.82500228515036L214.5,40.22115384615384L214.93333333333334,37.31153715573822L215.36666666666667,43.644227504730225L215.79999999999998,48.950003917400664L216.23333333333332,42.95961277301495L216.66666666666669,48.77884615384616L217.1,40.392311609708344L217.53333333333333,39.878846480296204L217.96666666666667,39.878846480296204L218.4,39.878846480296204L218.83333333333334,37.482694919292726L219.26666666666668,43.81538526828473L219.7,40.73461897556598L220.13333333333333,41.248075943726775L220.5666666666667,38.68076661916879L221,44.671157763554504L221.43333333333334,41.41923370728128L221.86666666666667,34.74422783118027L222.29999999999998,46.21153682928821L222.73333333333335,46.040387226985075L223.16666666666666,43.47307790242709L223.6,37.31153715573822L224.03333333333333,35.25769296059241L224.46666666666664,39.53653911443857L224.9,41.59038330958441L225.33333333333334,40.22115384615384L225.76666666666665,42.78846317071182L226.2,46.55384419514584L226.63333333333335,34.74422783118027L227.06666666666666,44.328842236445524L227.5,43.30192013887259L227.93333333333334,39.02307398502643L228.36666666666665,37.65384452159586L228.8,36.798080187577455L229.23333333333335,42.95961277301495L229.66666666666666,40.049996082599336L230.1,36.11346545586218L230.53333333333336,46.55384419514584L230.96666666666667,41.248075943726775L231.4,39.7076887167417L231.83333333333334,34.059613099465L232.26666666666665,42.78846317071182L232.70000000000002,35.771149928753175L233.13333333333333,43.644227504730225L233.56666666666666,38.167309651008L234,38.68076661916879L234.4333333333333,42.10384843899655L234.86666666666667,39.53653911443857L235.3,42.61730540715732L235.73333333333332,37.82500228515036L236.16666666666666,38.167309651008L236.6,28.75384484804593L237.03333333333333,38.167309651008L237.46666666666667,35.94230769230768L237.9,40.563461212011475L238.33333333333331,45.86922946343057L238.76666666666668,35.42884256289554L239.20000000000002,41.761541073138915L239.63333333333333,39.365381350884064L240.06666666666666,44.328842236445524L240.5,41.932690675442046L240.93333333333334,31.492303774907015L241.36666666666667,48.77884615384616L241.8,43.13077053656946L242.23333333333332,36.45577282171982L242.66666666666666,36.284615058165315L243.10000000000002,40.049996082599336L243.53333333333333,35.60000032645004L243.96666666666667,30.807689043191743L244.39999999999998,45.01346512941214L244.83333333333334,35.60000032645004L245.26666666666668,37.99615188745352L245.7,41.59038330958441L246.13333333333333,37.31153715573822L246.56666666666666,35.94230769230768L247,35.771149928753175L247.43333333333334,33.374998367749726L247.86666666666667,40.392311609708344L248.29999999999998,36.969229789880586L248.73333333333332,43.98653487058786" style="fill: none;" fill="none"></path></g></g></g></g></g></g><g transform="translate(70, 178)" clip-path="url(#clip_1)"><clipPath id="clip_1"><rect width="260" height="22"></rect></clipPath><g><g><line x1="0" y1="0" x2="0" y2="5" style="visibility: inherit;" fill="rgb(0, 0, 0)" stroke="rgb(204, 204, 204)" stroke-width="1px"></line><line x1="21.666666666666664" y1="0" x2="21.666666666666664" y2="5" style="visibility: inherit;" fill="rgb(0, 0, 0)" stroke="rgb(204, 204, 204)" stroke-width="1px"></line><line x1="43.33333333333333" y1="0" x2="43.33333333333333" y2="5" style="visibility: inherit;" fill="rgb(0, 0, 0)" stroke="rgb(204, 204, 204)" stroke-width="1px"></line><line x1="65" y1="0" x2="65" y2="5" style="visibility: inherit;" fill="rgb(0, 0, 0)" stroke="rgb(204, 204, 204)" stroke-width="1px"></line><line x1="86.66666666666666" y1="0" x2="86.66666666666666" y2="5" style="visibility: inherit;" fill="rgb(0, 0, 0)" stroke="rgb(204, 204, 204)" stroke-width="1px"></line><line x1="108.33333333333334" y1="0" x2="108.33333333333334" y2="5" style="visibility: inherit;" fill="rgb(0, 0, 0)" stroke="rgb(204, 204, 204)" stroke-width="1px"></line><line x1="130" y1="0" x2="130" y2="5" style="visibility: inherit;" fill="rgb(0, 0, 0)" stroke="rgb(204, 204, 204)" stroke-width="1px"></line><line x1="151.66666666666669" y1="0" x2="151.66666666666669" y2="5" style="visibility: inherit;" fill="rgb(0, 0, 0)" stroke="rgb(204, 204, 204)" stroke-width="1px"></line><line x1="173.33333333333331" y1="0" x2="173.33333333333331" y2="5" style="visibility: inherit;" fill="rgb(0, 0, 0)" stroke="rgb(204, 204, 204)" stroke-width="1px"></line><line x1="195" y1="0" x2="195" y2="5" style="visibility: inherit;" fill="rgb(0, 0, 0)" stroke="rgb(204, 204, 204)" stroke-width="1px"></line><line x1="216.66666666666669" y1="0" x2="216.66666666666669" y2="5" style="visibility: inherit;" fill="rgb(0, 0, 0)" stroke="rgb(204, 204, 204)" stroke-width="1px"></line><line x1="238.33333333333331" y1="0" x2="238.33333333333331" y2="5" style="visibility: inherit;" fill="rgb(0, 0, 0)" stroke="rgb(204, 204, 204)" stroke-width="1px"></line><line x1="260" y1="0" x2="260" y2="5" style="visibility: inherit;" fill="rgb(0, 0, 0)" stroke="rgb(204, 204, 204)" stroke-width="1px"></line></g><g transform="translate(0, 8)"><text x="0" y="0" dx="0em" dy="0.95em" style="text-anchor: middle; visibility: hidden; font-family: &quot;Helvetica Neue&quot;, sans-serif; font-size: 12px; font-weight: 200;" fill="rgb(50, 49, 63)" stroke="none" stroke-width="1px">-50</text><text x="21.666666666666664" y="0" dx="0em" dy="0.95em" style="text-anchor: middle; visibility: inherit; font-family: &quot;Helvetica Neue&quot;, sans-serif; font-size: 12px; font-weight: 200;" fill="rgb(50, 49, 63)" stroke="none" stroke-width="1px">0</text><text x="43.33333333333333" y="0" dx="0em" dy="0.95em" style="text-anchor: middle; visibility: hidden; font-family: &quot;Helvetica Neue&quot;, sans-serif; font-size: 12px; font-weight: 200;" fill="rgb(50, 49, 63)" stroke="none" stroke-width="1px">50</text><text x="65" y="0" dx="0em" dy="0.95em" style="text-anchor: middle; visibility: inherit; font-family: &quot;Helvetica Neue&quot;, sans-serif; font-size: 12px; font-weight: 200;" fill="rgb(50, 49, 63)" stroke="none" stroke-width="1px">100</text><text x="86.66666666666666" y="0" dx="0em" dy="0.95em" style="text-anchor: middle; visibility: hidden; font-family: &quot;Helvetica Neue&quot;, sans-serif; font-size: 12px; font-weight: 200;" fill="rgb(50, 49, 63)" stroke="none" stroke-width="1px">150</text><text x="108.33333333333334" y="0" dx="0em" dy="0.95em" style="text-anchor: middle; visibility: inherit; font-family: &quot;Helvetica Neue&quot;, sans-serif; font-size: 12px; font-weight: 200;" fill="rgb(50, 49, 63)" stroke="none" stroke-width="1px">200</text><text x="130" y="0" dx="0em" dy="0.95em" style="text-anchor: middle; visibility: hidden; font-family: &quot;Helvetica Neue&quot;, sans-serif; font-size: 12px; font-weight: 200;" fill="rgb(50, 49, 63)" stroke="none" stroke-width="1px">250</text><text x="151.66666666666669" y="0" dx="0em" dy="0.95em" style="text-anchor: middle; visibility: inherit; font-family: &quot;Helvetica Neue&quot;, sans-serif; font-size: 12px; font-weight: 200;" fill="rgb(50, 49, 63)" stroke="none" stroke-width="1px">300</text><text x="173.33333333333331" y="0" dx="0em" dy="0.95em" style="text-anchor: middle; visibility: hidden; font-family: &quot;Helvetica Neue&quot;, sans-serif; font-size: 12px; font-weight: 200;" fill="rgb(50, 49, 63)" stroke="none" stroke-width="1px">350</text><text x="195" y="0" dx="0em" dy="0.95em" style="text-anchor: middle; visibility: inherit; font-family: &quot;Helvetica Neue&quot;, sans-serif; font-size: 12px; font-weight: 200;" fill="rgb(50, 49, 63)" stroke="none" stroke-width="1px">400</text><text x="216.66666666666669" y="0" dx="0em" dy="0.95em" style="text-anchor: middle; visibility: hidden; font-family: &quot;Helvetica Neue&quot;, sans-serif; font-size: 12px; font-weight: 200;" fill="rgb(50, 49, 63)" stroke="none" stroke-width="1px">450</text><text x="238.33333333333331" y="0" dx="0em" dy="0.95em" style="text-anchor: middle; visibility: inherit; font-family: &quot;Helvetica Neue&quot;, sans-serif; font-size: 12px; font-weight: 200;" fill="rgb(50, 49, 63)" stroke="none" stroke-width="1px">500</text><text x="260" y="0" dx="0em" dy="0.95em" style="text-anchor: middle; visibility: hidden; font-family: &quot;Helvetica Neue&quot;, sans-serif; font-size: 12px; font-weight: 200;" fill="rgb(50, 49, 63)" stroke="none" stroke-width="1px">550</text></g><line x1="0" y1="0" x2="260" y2="0" fill="rgb(0, 0, 0)" stroke="rgb(204, 204, 204)" stroke-width="1px"></line></g></g></g></g></svg>