<svg viewBox="0 0 330 200" xmlns="http://www.w3.org/2000/svg"><g><g><g><g><g><line x1="70" y1="178" x2="65" y2="178" style="visibility: inherit;" fill="rgb(0, 0, 0)" stroke="rgb(204, 204, 204)" stroke-width="1px"></line><line x1="70" y1="164.30769230769232" x2="65" y2="164.30769230769232" style="visibility: inherit;" fill="rgb(0, 0, 0)" stroke="rgb(204, 204, 204)" stroke-width="1px"></line><line x1="70" y1="150.6153846153846" x2="65" y2="150.6153846153846" style="visibility: inherit;" fill="rgb(0, 0, 0)" stroke="rgb(204, 204, 204)" stroke-width="1px"></line><line x1="70" y1="136.9230769230769" x2="65" y2="136.9230769230769" style="visibility: inherit;" fill="rgb(0, 0, 0)" stroke="rgb(204, 204, 204)" stroke-width="1px"></line><line x1="70" y1="123.23076923076923" x2="65" y2="123.23076923076923" style="visibility: inherit;" fill="rgb(0, 0, 0)" stroke="rgb(204, 204, 204)" stroke-width="1px"></line><line x1="70" y1="109.53846153846155" x2="65" y2="109.53846153846155" style="visibility: inherit;" fill="rgb(0, 0, 0)" stroke="rgb(204, 204, 204)" stroke-width="1px"></line><line x1="70" y1="95.84615384615385" x2="65" y2="95.84615384615385" style="visibility: inherit;" fill="rgb(0, 0, 0)" stroke="rgb(204, 204, 204)" stroke-width="1px"></line><line x1="70" y1="82.15384615384616" x2="65" y2="82.15384615384616" style="visibility: inherit;" fill="rgb(0, 0, 0)" stroke="rgb(204, 204, 204)" stroke-width="1px"></line><line x1="70" y1="68.46153846153848" x2="65" y2="68.46153846153848" style="visibility: inherit;" fill="rgb(0, 0, 0)" stroke="rgb(204, 204, 204)" stroke-width="1px"></line><line x1="70" y1="54.769230769230774" x2="65" y2="54.769230769230774" style="visibility: inherit;" fill="rgb(0, 0, 0)" stroke="rgb(204, 204, 204)" stroke-width="1px"></line><line x1="70" y1="41.076923076923094" x2="65" y2="41.076923076923094" style="visibility: inherit;" fill="rgb(0, 0, 0)" stroke="rgb(204, 204, 204)" stroke-width="1px"></line><line x1="70" y1="27.384615384615387" x2="65" y2="27.384615384615387" style="visibility: inherit;" fill="rgb(0, 0, 0)" stroke="rgb(204, 204, 204)" stroke-width="1px"></line><line x1="70" y1="13.69230769230768" x2="65" y2="13.69230769230768" style="visibility: inherit;" fill="rgb(0, 0, 0)" stroke="rgb(204, 204, 204)" stroke-width="1px"></line><line x1="70" y1="0" x2="65" y2="0" style="visibility: inherit;" fill="rgb(0, 0, 0)" stroke="rgb(204, 204, 204)" stroke-width="1px"></line></g><g transform="translate(60, 0)"><text x="0" y="178" dx="0em" dy="0.3em" style="text-anchor: end; visibility: hidden; font-family: &quot;Helvetica Neue&quot;, sans-serif; font-size: 12px; font-weight: 200;" fill="rgb(50, 49, 63)" stroke="none" stroke-width="1px">-0.05</text><text x="0" y="164.30769230769232" dx="0em" dy="0.3em" style="text-anchor: end; visibility: inherit; font-family: &quot;Helvetica Neue&quot;, sans-serif; font-size: 12px; font-weight: 200;" fill="rgb(50, 49, 63)" stroke="none" stroke-width="1px">0</text><text x="0" y="150.6153846153846" dx="0em" dy="0.3em" style="text-anchor: end; visibility: hidden; font-family: &quot;Helvetica Neue&quot;, sans-serif; font-size: 12px; font-weight: 200;" fill="rgb(50, 49, 63)" stroke="none" stroke-width="1px">0.05</text><text x="0" y="136.9230769230769" dx="0em" dy="0.3em" style="text-anchor: end; visibility: inherit; font-family: &quot;Helvetica Neue&quot;, sans-serif; font-size: 12px; font-weight: 200;" fill="rgb(50, 49, 63)" stroke="none" stroke-width="1px">0.1</text><text x="0" y="123.23076923076923" dx="0em" dy="0.3em" style="text-anchor: end; visibility: hidden; font-family: &quot;Helvetica Neue&quot;, sans-serif; font-size: 12px; font-weight: 200;" fill="rgb(50, 49, 63)" stroke="none" stroke-width="1px">0.15</text><text x="0" y="109.53846153846155" dx="0em" dy="0.3em" style="text-anchor: end; visibility: inherit; font-family: &quot;Helvetica Neue&quot;, sans-serif; font-size: 12px; font-weight: 200;" fill="rgb(50, 49, 63)" stroke="none" stroke-width="1px">0.2</text><text x="0" y="95.84615384615385" dx="0em" dy="0.3em" style="text-anchor: end; visibility: hidden; font-family: &quot;Helvetica Neue&quot;, sans-serif; font-size: 12px; font-weight: 200;" fill="rgb(50, 49, 63)" stroke="none" stroke-width="1px">0.25</text><text x="0" y="82.15384615384616" dx="0em" dy="0.3em" style="text-anchor: end; visibility: inherit; font-family: &quot;Helvetica Neue&quot;, sans-serif; font-size: 12px; font-weight: 200;" fill="rgb(50, 49, 63)" stroke="none" stroke-width="1px">0.3</text><text x="0" y="68.46153846153848" dx="0em" dy="0.3em" style="text-anchor: end; visibility: hidden; font-family: &quot;Helvetica Neue&quot;, sans-serif; font-size: 12px; font-weight: 200;" fill="rgb(50, 49, 63)" stroke="none" stroke-width="1px">0.35</text><text x="0" y="54.769230769230774" dx="0em" dy="0.3em" style="text-anchor: end; visibility: inherit; font-family: &quot;Helvetica Neue&quot;, sans-serif; font-size: 12px; font-weight: 200;" fill="rgb(50, 49, 63)" stroke="none" stroke-width="1px">0.4</text><text x="0" y="41.076923076923094" dx="0em" dy="0.3em" style="text-anchor: end; visibility: hidden; font-family: &quot;Helvetica Neue&quot;, sans-serif; font-size: 12px; font-weight: 200;" fill="rgb(50, 49, 63)" stroke="none" stroke-width="1px">0.45</text><text x="0" y="27.384615384615387" dx="0em" dy="0.3em" style="text-anchor: end; visibility: inherit; font-family: &quot;Helvetica Neue&quot;, sans-serif; font-size: 12px; font-weight: 200;" fill="rgb(50, 49, 63)" stroke="none" stroke-width="1px">0.5</text><text x="0" y="13.69230769230768" dx="0em" dy="0.3em" style="text-anchor: end; visibility: hidden; font-family: &quot;Helvetica Neue&quot;, sans-serif; font-size: 12px; font-weight: 200;" fill="rgb(50, 49, 63)" stroke="none" stroke-width="1px">0.55</text><text x="0" y="0" dx="0em" dy="0.3em" style="text-anchor: end; visibility: hidden; font-family: &quot;Helvetica Neue&quot;, sans-serif; font-size: 12px; font-weight: 200;" fill="rgb(50, 49, 63)" stroke="none" stroke-width="1px">0.6</text></g><line x1="70" y1="0" x2="70" y2="178" fill="rgb(0, 0, 0)" stroke="rgb(204, 204, 204)" stroke-width="1px"></line></g></g><g transform="translate(70, 0)" clip-path="url(#clip_0)"><clipPath id="clip_0"><rect width="260" height="178"></rect></clipPath><g><g><g><line x1="0" y1="0" x2="0" y2="178" fill="rgb(0, 0, 0)" stroke="rgb(60, 60, 60)" stroke-width="1px" opacity="0.25"></line><line x1="26" y1="0" x2="26" y2="178" fill="rgb(0, 0, 0)" stroke="rgb(60, 60, 60)" stroke-width="1px" opacity="0.25"></line><line x1="52" y1="0" x2="52" y2="178" fill="rgb(0, 0, 0)" stroke="rgb(60, 60, 60)" stroke-width="1px" opacity="0.25"></line><line x1="78" y1="0" x2="78" y2="178" fill="rgb(0, 0, 0)" stroke="rgb(60, 60, 60)" stroke-width="1px" opacity="0.25"></line><line x1="104" y1="0" x2="104" y2="178" fill="rgb(0, 0, 0)" stroke="rgb(60, 60, 60)" stroke-width="1px" opacity="0.25"></line><line x1="130" y1="0" x2="130" y2="178" fill="rgb(0, 0, 0)" stroke="rgb(60, 60, 60)" stroke-width="1px" opacity="0.25"></line><line x1="156" y1="0" x2="156" y2="178" fill="rgb(0, 0, 0)" stroke="rgb(60, 60, 60)" stroke-width="1px" opacity="0.25"></line><line x1="182" y1="0" x2="182" y2="178" fill="rgb(0, 0, 0)" stroke="rgb(60, 60, 60)" stroke-width="1px" opacity="0.25"></line><line x1="208" y1="0" x2="208" y2="178" fill="rgb(0, 0, 0)" stroke="rgb(60, 60, 60)" stroke-width="1px" opacity="0.25"></line><line x1="234" y1="0" x2="234" y2="178" fill="rgb(0, 0, 0)" stroke="rgb(60, 60, 60)" stroke-width="1px" opacity="0.25"></line><line x1="260" y1="0" x2="260" y2="178" fill="rgb(0, 0, 0)" stroke="rgb(60, 60, 60)" stroke-width="1px" opacity="0.25"></line></g><g><line x1="0" y1="178" x2="260" y2="178" fill="rgb(0, 0, 0)" stroke="rgb(60, 60, 60)" stroke-width="1px" opacity="0.25"></line><line x1="0" y1="164.30769230769232" x2="260" y2="164.30769230769232" fill="rgb(0, 0, 0)" stroke="rgb(60, 60, 60)" stroke-width="1px" opacity="0.25"></line><line x1="0" y1="150.6153846153846" x2="260" y2="150.6153846153846" fill="rgb(0, 0, 0)" stroke="rgb(60, 60, 60)" stroke-width="1px" opacity="0.25"></line><line x1="0" y1="136.9230769230769" x2="260" y2="136.9230769230769" fill="rgb(0, 0, 0)" stroke="rgb(60, 60, 60)" stroke-width="1px" opacity="0.25"></line><line x1="0" y1="123.23076923076923" x2="260" y2="123.23076923076923" fill="rgb(0, 0, 0)" stroke="rgb(60, 60, 60)" stroke-width="1px" opacity="0.25"></line><line x1="0" y1="109.53846153846155" x2="260" y2="109.53846153846155" fill="rgb(0, 0, 0)" stroke="rgb(60, 60, 60)" stroke-width="1px" opacity="0.25"></line><line x1="0" y1="95.84615384615385" x2="260" y2="95.84615384615385" fill="rgb(0, 0, 0)" stroke="rgb(60, 60, 60)" stroke-width="1px" opacity="0.25"></line><line x1="0" y1="82.15384615384616" x2="260" y2="82.15384615384616" fill="rgb(0, 0, 0)" stroke="rgb(60, 60, 60)" stroke-width="1px" opacity="0.25"></line><line x1="0" y1="68.46153846153848" x2="260" y2="68.46153846153848" fill="rgb(0, 0, 0)" stroke="rgb(60, 60, 60)" stroke-width="1px" opacity="0.25"></line><line x1="0" y1="54.769230769230774" x2="260" y2="54.769230769230774" fill="rgb(0, 0, 0)" stroke="rgb(60, 60, 60)" stroke-width="1px" opacity="0.25"></line><line x1="0" y1="41.076923076923094" x2="260" y2="41.076923076923094" fill="rgb(0, 0, 0)" stroke="rgb(60, 60, 60)" stroke-width="1px" opacity="0.25"></line><line x1="0" y1="27.384615384615387" x2="260" y2="27.384615384615387" fill="rgb(0, 0, 0)" stroke="rgb(60, 60, 60)" stroke-width="1px" opacity="0.25"></line><line x1="0" y1="13.69230769230768" x2="260" y2="13.69230769230768" fill="rgb(0, 0, 0)" stroke="rgb(60, 60, 60)" stroke-width="1px" opacity="0.25"></line><line x1="0" y1="0" x2="260" y2="0" fill="rgb(0, 0, 0)" stroke="rgb(60, 60, 60)" stroke-width="1px" opacity="0.25"></line></g></g></g><g><g><line x1="0" y1="164.30769230769232" x2="260" y2="164.30769230769232" fill="rgb(0, 0, 0)" stroke="rgb(153, 153, 153)" stroke-width="1.5px"></line></g></g><g><g><line x1="26" y1="0" x2="26" y2="178" fill="rgb(0, 0, 0)" stroke="rgb(153, 153, 153)" stroke-width="1.5px"></line></g></g><g><g><g><g><g><path stroke="rgb(255, 112, 67)" stroke-width="2px" d="M26.52,161.56923083044015L27.04,159.85769240715757L27.56,162.1281005196753L28.08,160.61278288801753L28.6,158.6521327266358L29.12,159.87607627851398L29.64,161.69977457069737L30.16,162.76076218319284L30.68,163.38583351182086L31.2,161.55272373452559L31.72,162.65872369910312L32.24,161.1242016402251L32.76,162.3992632261345L33.28,162.06698988463017L33.800000000000004,161.86779260338355L34.32,160.65264049554028L34.84,161.01933869925637L35.36,162.3348137422191L35.88,163.12401325904963L36.400000000000006,159.21580362456683L36.919999999999995,157.96637791652435L37.44,160.50293705961516L37.96,160.92945793630943L38.48,160.08997852528728L39,158.49090571933667L39.519999999999996,156.43607848591566L40.04,158.4893415252204L40.56,157.53052747670444L41.08,160.2413944079362L41.6,160.77252909435782L42.120000000000005,161.09120983106195L42.64,159.09164888987323L43.160000000000004,158.98729707021613L43.68,160.02007060389593L44.2,161.7351193148974L44.72,160.57337931823093L45.239999999999995,158.78095073022018L45.76,158.80087817948132L46.28,161.0036038356732L46.8,162.32523922624753L47.32,160.92745127590263L47.839999999999996,161.18416309784118L48.36,160.2428055997081L48.88,160.77337569209283L49.4,159.99633315645013L49.92,159.5301076351162L50.440000000000005,159.25037232233444L50.96,159.0825311346721L51.480000000000004,158.98182642207712L52,160.0167881854307L26.52,160.63776524343749L27.04,160.80496685469316L27.56,160.69990319790006L28.08,160.77378805218314L28.6,160.4073498196766L29.12,160.7351790736078L29.64,161.13726124951236L30.16,160.283125964154L30.68,160.31833708838957L31.2,159.9286946178548L31.72,160.2426014309844L32.24,160.22556089531628L32.76,159.1884135582017L33.28,159.52458659645947L33.800000000000004,159.38398264549394L34.32,159.71038962402199L34.84,159.22161836531407L35.36,157.69604807284537L35.88,157.53378271434482L36.400000000000006,157.36796202607297L36.919999999999995,155.14616170044837L37.44,153.88154297824514L37.96,150.6581562623728L38.48,146.8756628249679L39,137.1438588417022L39.519999999999996,128.70323883897447L40.04,119.18886618443774L40.56,108.20870589300753L41.08,95.86983944273999L41.6,84.90651970315949L42.120000000000005,77.09621807782315L42.64,73.71080672513064L43.160000000000004,69.00956082757529L43.68,65.29881250556194L44.2,62.045439782530735L44.72,59.81957025602594L45.239999999999995,56.63558713224151L45.76,52.12366127745281L46.28,52.42881058412681L46.8,51.99574854183774L47.32,50.435141693955L47.839999999999996,50.38877836870549L48.36,49.128650591967755L48.88,47.82488214055286L49.4,51.15031272449613L49.92,53.62480301931309L50.440000000000005,52.507957951184636L50.96,50.67400423414132L51.480000000000004,49.98440410744507L52,51.966797224681045L52.52,56.6477698590208L53.04,59.86712227865384L53.559999999999995,66.59104338144168L54.08,66.65462733466522L54.6,68.81508500716696L55.12,70.1798194515893L55.64,70.10865933476254L56.16,67.12211828604055L56.68,61.63327084104431L57.2,56.491500966165034L57.72,53.68028493392359L58.24,49.73432506766804L58.760000000000005,45.929056579062376L59.28,41.31820213356647L59.800000000000004,46.424767042245975L60.32,48.735628150316586L60.84,53.75060779000074L61.36,58.40267092992791L61.879999999999995,59.96160229679671L62.4,61.102347168682826L62.92,60.21217857661911L63.44,59.06192253058684L63.96,56.11253865605681L64.48,56.80752463001433L65,52.70605245606694L65.52,49.492094579061956L66.04,48.52218047726038L66.56,42.32638468711306L67.08,42.374293134209495L67.60000000000001,38.295346547675166L68.12,37.08028511284209L68.64,38.062786713480676L69.16,39.063056512892985L69.68,38.84168071448207L70.2,40.0096248579448L70.72,37.90346604723899L71.24000000000001,39.104387059491046L71.76,38.318787257068664L72.28,41.20204119327036L72.80000000000001,41.49430098613905L73.32,41.875042913625094L73.83999999999999,43.40425769262603L74.36,47.40255448499559L74.88,48.7061489896729L75.39999999999999,49.35138274613621L75.92,47.27390670133869L76.44,43.35742198852029L76.96,40.665222162721335L77.47999999999999,39.18682521358505L78,37.13594036793705L78.52,36.932333190371395L79.03999999999999,37.70016966731217L79.56,37.27087076999646L80.08,39.40944462486084L80.6,36.03720549761499L81.12,32.98693829144432L81.64,36.63370235046517L82.16,34.919451918349836L82.68,34.37013360353163L83.2,33.62977377561148L83.72,35.10247912766218L84.24000000000001,34.274563877354126L84.76,37.26935475566805L85.28,37.902382606490164L85.8,37.25527558716021L86.32000000000001,37.62008921269933L86.84,37.565131495336686L87.36,38.90138632834967L87.88000000000001,39.15544744278523L88.4,37.459422703565025L88.92,36.578730806376L89.44,38.51493196673809L89.96,37.55434536238772L90.47999999999999,40.40107032285445L91,41.01371846388949L91.52,41.175924561246205L92.03999999999999,42.094785897718566L92.56,41.27686997167089L93.08,40.58073762877794L93.6,38.79382875961164L94.11999999999999,37.44783428092521L94.64,42.04870213551541L95.16,41.180759873427746L95.67999999999999,38.81153310829362L96.2,37.73230604732103L96.72,39.07015416496208L97.24,38.16132457400823L97.76,35.15141052076041L98.28,35.60469233572235L98.8,36.082047476464425L99.32000000000001,36.368460560909625L99.84,36.47184530615496L100.36,37.42387693678231L100.88000000000001,38.13201886150176L101.4,39.24151874804872L101.92,39.907218679976864L102.44,37.49971660685085L102.96000000000001,36.94521614645538L103.48,36.27020687211018L104,38.39827744709987L104.52000000000001,40.565120575573815L105.04,39.263687207639606L105.56,41.08436643189768L106.08,43.682926376226106L106.6,43.2566779885986L107.11999999999999,44.096315791267074L107.64,40.423943712654136L108.16,41.36975149587724L108.67999999999999,41.86877306038926L109.2,43.26357283434149L109.72,45.40121905672157L110.24,48.05303951808068L110.75999999999999,45.81028603279009L111.28,43.84847905082171L111.8,41.98678012992539L112.32,41.006683723730646L112.84,41.171703717150905L113.36,43.11917712108456L113.88,41.95996781111228L114.4,45.09828798723501L114.92,42.87358843811643L115.44,42.56569243846849L115.96000000000001,42.79172367770889L116.48,42.31118753045908L117,40.10594459330645L117.52000000000001,44.12279700289454L118.04,42.972908579227436L118.56,42.35143863044897L119.08,41.430861611309126L119.60000000000001,40.399286719874794L120.12,39.71187867959239L120.64,37.31404950119838L121.16000000000001,37.51843061477919L121.68,41.406441939611966L122.19999999999999,40.24771197051342L122.72,39.27862809636821L123.24,40.20333018165468L123.75999999999999,38.29353513415106L124.28,39.680737509746166L124.8,41.06075072047551L125.32,40.451066078060705L125.84,41.38602491512117L126.36,41.467768272906454L126.88,38.572969308951684L127.39999999999999,39.16378001841073L127.92,41.435190957389494L128.44,40.88111300747343L128.96,41.50713012642575L129.48,42.156586290483204L130,41.38241331275148L130.52,41.67098736324948L131.04,41.09105395641123L131.56,41.63309469578843L132.08,43.259088761924005L132.6,45.05622287966369L133.12,47.84604181184599L133.64000000000001,46.849934085215494L134.16,45.019959667649175L134.68,39.814283362317155L135.20000000000002,41.48318396562544L135.72,42.2791415403461L136.24,40.36056289192476L136.76000000000002,38.66172391749973L137.28,39.217032783539565L137.8,37.63329685436068L138.32,39.35305438279323L138.84,39.700294168137475L139.36,39.49786920031485L139.88,40.12949205675838L140.4,40.50846577062447L140.92000000000002,38.61353943387596L141.44,41.173509712090436L141.96,41.20333620474497L142.48000000000002,38.96200185342698L143,41.38258716382106L143.52,41.8080146202343L144.04000000000002,44.322501340992915L144.56,43.77734591380175L145.08,42.01256008863467L145.60000000000002,42.59676721415164L146.12,41.646521866952526L146.64,45.45791220611136L147.16,43.63705475481447L147.67999999999998,38.7791543628515L148.2,39.766722995201604L148.72,39.94849533558249L149.23999999999998,38.893712063644784L149.76,39.01391993761928L150.28,37.99066109125951L150.79999999999998,38.47208935418806L151.32,38.350177472916045L151.84,41.01549253551448L152.35999999999999,39.39698743726092L152.88,41.64357851412143L153.4,42.786147108472846L153.92,42.992456320632755L154.44,42.22624432894912L154.95999999999998,41.013439296801835L155.48,40.080370225748624L156,40.13668367391071L156.51999999999998,40.718163528180156L157.04,42.02551206514326L157.56,40.0029991550382L158.07999999999998,39.063337301661306L158.6,39.59492702488009L159.12,41.420033268585L159.64,39.91355776978935L160.16,38.804289683247646L160.68,39.98719023920415L161.2,40.62846746735627L161.72,43.82015583653043L162.24,41.07978541787051L162.76,40.73633278918385L163.28,42.65256851253946L163.8,44.897693517297284L164.32,46.518617677338625L164.84,48.31270985142177L165.36,51.57993229736054L165.88,53.6087288703456L166.4,50.30754632031527L166.92000000000002,48.66914252390444L167.44,48.37071497777322L167.96,50.38242885608392L168.48000000000002,49.67253266976701L169,50.61582768590796L169.52,50.36026701753421L170.04000000000002,46.51000780074693L170.56,43.30985148719441L171.08,43.92283383865973L171.6,44.632932247646806L172.12,46.15437486378349L172.64000000000001,41.86416194342834L173.16,41.54926770262642L173.68,43.277252406948094L174.20000000000002,44.04019733685496L174.72,43.060271725946734L175.24,41.03462379054943L175.76000000000002,38.4500055658805L176.28,38.61077309261765L176.8,38.50184755689503L177.32000000000002,39.942647909735626L177.84,40.67020517509695L178.36,40.2167387508336L178.88,41.31388835970617L179.39999999999998,39.16525609274677L179.92,38.62915456970819L180.44,39.88210917108049L180.95999999999998,38.92234347036538L181.48,37.18263737377009L182,37.987275123694445L182.51999999999998,41.48236585769678L183.04,40.6355720549717L183.56,44.16672758720759L184.07999999999998,43.341575927923174L184.6,41.340329258078356L185.12,43.220352445641026L185.64,44.2114434118356L186.16,41.72532680208275L186.68,39.54904210451579L187.2,38.585580284083505L187.72,41.019811275871916L188.23999999999998,37.00342548822164L188.76,38.016670938708415L189.28,37.80308053094217L189.79999999999998,38.42800085891892L190.32,39.69295383918512L190.84,41.068080518138856L191.35999999999999,39.22315743957125L191.88,39.896201894890424L192.4,38.725413052886495L192.92,38.776017584821204L193.44,40.312532713755644L193.96,42.19290568001824L194.48,41.883436890923434L195,41.97160151015268L195.52,44.0098846359148L196.04,43.521316049833615L196.56,47.267403447555296L197.08,46.16044206853317L197.6,42.6208801034152L198.12,42.55099038399081L198.64000000000001,41.619055768856015L199.16,40.78604910708904L199.68,42.20316635883162L200.20000000000002,44.08036043970034L200.72,45.75436867359383L201.24,45.868776094950306L201.76000000000002,44.020496034460905L202.28,43.93845172799044L202.8,45.669223446567855L203.32,45.54384306604862L203.84,41.771692021974076L204.36,41.42532264433211L204.88,42.17596164214831L205.4,43.10557698528899L205.92000000000002,41.267192997919665L206.44,40.57493144452721L206.96,42.89803670385339L207.48000000000002,42.71728434425373L208,42.60883292849388L208.52,44.46068332784077L209.04000000000002,42.559485483401176L209.56,41.555689723080434L210.08,43.28110561922048L210.60000000000002,42.67327980078784L211.12,42.85627609510047L211.64,44.677612333226534L212.16,46.11271980970952L212.67999999999998,41.63378612371963L213.2,44.56027324119205L213.72,43.03001153494162L214.23999999999998,42.86492908382789L214.76,42.90280255950273L215.28,41.07706523702609L215.79999999999998,39.43393105816787L216.32,38.17420465816687L216.84,38.8560613870186L217.35999999999999,41.25055977855422L217.88,41.04418345735891L218.4,41.67343223727829L218.92,40.54482909545629L219.44,40.96305078110754L219.95999999999998,34.573212733608756L220.48,37.72238996210692L221,38.584972569382614L221.51999999999998,41.56713843242363L222.04,38.97489713826934L222.56,40.22647765856024L223.07999999999998,40.498194026283784L223.6,41.619684471319346L224.12,39.896425545086885L224.64,40.77939470265076L225.16,42.199173716168644L225.68,43.7356591204952L226.2,43.699086474189215L226.72,43.334837152798286L227.24,43.04782445454188L227.76,42.944079941009875L228.28,43.908756962713824L228.8,42.228329664324974L229.32,39.78238398093984L229.84,41.121738603191716L230.36,43.08919805270904L230.88,43.58505572620365L231.4,45.594108791838835L231.92000000000002,42.554926030084715L232.44,39.90987869497391L232.96,42.08823621509225L233.48000000000002,40.246019696772436L234,39.82530451749585L234.52,38.95672051913587L235.04000000000002,39.66787990170789L235.56,38.519960016055705L236.08,40.090438331575086L236.6,39.59503275203437L237.12,40.18779018779006L237.64000000000001,37.05190462074478L238.16,36.744988795713L238.68,37.930068764124485L239.20000000000002,40.01034947310245L239.72,40.026208116901216" style="fill: none;" fill="none"></path></g></g></g></g><g opacity="0.2"><g><g><g><path stroke="rgb(255, 112, 67)" stroke-width="2px" d="M26.52,161.56923083044015L27.04,158.830769353188L27.56,164.30769230769232L28.08,158.830769353188L28.6,156.09230787593586L29.12,161.56923083044015L29.64,164.30769230769232L30.16,164.30769230769232L30.68,164.30769230769232L31.2,158.830769353188L31.72,164.30769230769232L32.24,158.830769353188L32.76,164.30769230769232L33.28,161.56923083044015L33.800000000000004,161.56923083044015L34.32,158.830769353188L34.84,161.56923083044015L35.36,164.30769230769232L35.88,164.30769230769232L36.400000000000006,153.3538463986837L36.919999999999995,156.09230787593586L37.44,164.30769230769232L37.96,161.56923083044015L38.48,158.830769353188L39,156.09230787593586L39.519999999999996,153.3538463986837L40.04,161.56923083044015L40.56,156.09230787593586L41.08,164.30769230769232L41.6,161.56923083044015L42.120000000000005,161.56923083044015L42.64,156.09230787593586L43.160000000000004,158.830769353188L43.68,161.56923083044015L44.2,164.30769230769232L44.72,158.830769353188L45.239999999999995,156.09230787593586L45.76,158.830769353188L46.28,164.30769230769232L46.8,164.30769230769232L47.32,158.830769353188L47.839999999999996,161.56923083044015L48.36,158.830769353188L48.88,161.56923083044015L49.4,158.830769353188L49.92,158.830769353188L50.440000000000005,158.830769353188L50.96,158.830769353188L51.480000000000004,158.830769353188L52,161.56923083044015L26.52,161.56923083044015L27.04,161.05576927157549L27.56,160.54230771271082L28.08,160.88461533360757L28.6,159.85769247091733L29.12,161.22692295450432L29.64,161.74038451336898L30.16,159.0019230361168L30.68,160.3711537747429L31.2,159.34423091205267L31.72,160.71346165067874L32.24,160.20000009181408L32.76,157.63269255252985L33.28,160.02884615384616L33.800000000000004,159.17307671904564L34.32,160.20000009181408L34.84,158.48846147725214L35.36,155.40769263414236L35.88,157.290384676594L36.400000000000006,157.11923099366518L36.919999999999995,151.81346121201148L37.44,151.9846148949403L37.96,145.8230761885643L38.48,141.2019226688605L39,122.54615286680368L39.519999999999996,116.04230883488289L40.04,104.91730720263261L40.56,91.7384654558622L41.08,77.36153976733868L41.6,68.46154009378876L42.120000000000005,65.38076563981863L42.64,68.63268969609189L43.160000000000004,61.95769198124226L43.68,59.73269002254193L44.2,57.16538069798398L44.72,56.480765966268706L45.239999999999995,51.85961244656491L45.76,45.355772495269775L46.28,52.88653454413782L46.8,51.34615547840413L47.32,48.09423142213089L47.839999999999996,50.31923338083121L48.36,47.238458926861114L48.88,45.86922946343057L49.4,56.13845860041107L49.92,57.33653846153848L50.440000000000005,50.832690348992L50.96,47.923073658576385L51.480000000000004,48.950003917400664L52,54.940386900535L52.52,63.669228810530456L53.04,64.69615090810336L53.559999999999995,76.67692503562341L54.08,66.75000326450055L54.6,72.05577151591962L55.12,72.22692111822275L55.64,70.00191915952243L56.16,62.64230671295755L56.68,53.39999967354996L57.2,48.77884615384616L57.72,49.46346088556143L58.24,43.81538526828473L58.760000000000005,40.22115384615384L59.28,34.40192046532263L59.800000000000004,54.08461440526523L60.32,52.201919812422545L60.84,61.27307724952698L61.36,65.38076563981863L61.879999999999995,62.29999934709991L62.4,62.81346447651204L62.92,58.87692568852353L63.44,57.33653846153848L63.96,51.68846284426178L64.48,57.85000359095062L65,46.55384419514584L65.52,44.671157763554504L66.04,47.06730932455798L66.56,33.03269100189209L67.08,42.446155804854186L67.60000000000001,32.17692666787366L68.12,35.25769296059241L68.64,39.53653911443857L69.16,40.563461212011475L69.68,38.50961701686563L70.2,41.761541073138915L70.72,34.74422783118027L71.24000000000001,40.90576857786911L71.76,37.14038755343509L72.28,45.526922097572935L72.80000000000001,41.932690675442046L73.32,42.446155804854186L73.83999999999999,45.69807986112741L74.36,53.39999967354996L74.88,50.66154074668884L75.39999999999999,50.31923338083121L75.92,44.157692634142364L76.44,37.482694919292726L76.96,36.62692242402295L77.47999999999999,36.969229789880586L78,34.059613099465L78.52,36.62692242402295L79.03999999999999,38.8519243827233L79.56,36.62692242402295L80.08,42.61730540715732L80.6,30.978846806746247L81.12,28.411537482188294L81.64,42.10384843899655L82.16,32.34807627017679L82.68,33.54615613130423L83.2,32.519234033731294L83.72,37.31153715573822L84.24000000000001,33.03269100189209L84.76,41.761541073138915L85.28,38.8519243827233L85.8,36.284615058165315L86.32000000000001,38.167309651008L86.84,37.482694919292726L87.36,40.90576857786911L87.88000000000001,39.53653911443857L88.4,34.91538559473477L88.92,35.25769296059241L89.44,41.41923370728128L89.96,36.11346545586218L90.47999999999999,44.671157763554504L91,41.932690675442046L91.52,41.41923370728128L92.03999999999999,43.47307790242709L92.56,40.049996082599336L93.08,39.53653911443857L93.6,36.11346545586218L94.11999999999999,35.42884256289554L94.64,48.950003917400664L95.16,39.878846480296204L95.67999999999999,35.25769296059241L96.2,36.11346545586218L96.72,41.07692634142364L97.24,36.798080187577455L97.76,30.636539440888612L98.28,36.284615058165315L98.8,36.798080187577455L99.32000000000001,36.798080187577455L99.84,36.62692242402295L100.36,38.8519243827233L100.88000000000001,39.19423174858093L101.4,40.90576857786911L101.92,40.90576857786911L102.44,33.888463497161865L102.96000000000001,36.11346545586218L103.48,35.25769296059241L104,41.59038330958441L104.52000000000001,43.81538526828473L105.04,37.31153715573822L105.56,43.81538526828473L106.08,47.58076629271875L106.6,42.61730540715732L107.11999999999999,45.355772495269775L107.64,34.91538559473477L108.16,42.78846317071182L108.67999999999999,42.61730540715732L109.2,45.355772495269775L109.72,48.607688390291656L110.24,52.030770210119414L110.75999999999999,42.446155804854186L111.28,40.90576857786911L111.8,39.19423174858093L112.32,39.53653911443857L112.84,41.41923370728128L113.36,46.040387226985075L113.88,40.22115384615384L114.4,49.80576825141907L114.92,39.53653911443857L115.44,42.10384843899655L115.96000000000001,43.13077053656946L116.48,41.59038330958441L117,36.798080187577455L117.52000000000001,50.1480756172767L118.04,41.248075943726775L118.56,41.41923370728128L119.08,40.049996082599336L119.60000000000001,38.8519243827233L120.12,38.68076661916879L120.64,33.71730573360736L121.16000000000001,37.82500228515036L121.68,47.238458926861114L122.19999999999999,38.50961701686563L122.72,37.82500228515036L123.24,41.59038330958441L123.75999999999999,35.42884256289554L124.28,41.761541073138915L124.8,43.13077053656946L125.32,39.53653911443857L125.84,42.78846317071182L126.36,41.59038330958441L126.88,34.2307708630195L127.39999999999999,40.049996082599336L127.92,44.842307365857636L128.44,40.049996082599336L128.96,42.446155804854186L129.48,43.13077053656946L130,40.22115384615384L130.52,42.10384843899655L131.04,40.22115384615384L131.56,42.446155804854186L132.08,45.69807986112741L132.6,47.75192405627325L133.12,52.030770210119414L133.64000000000001,45.355772495269775L134.16,42.27499804129968L134.68,32.005768904319154L135.20000000000002,43.98653487058786L135.72,43.47307790242709L136.24,37.482694919292726L136.76000000000002,36.11346545586218L137.28,40.049996082599336L137.8,35.25769296059241L138.32,41.932690675442046L138.84,40.22115384615384L139.36,39.19423174858093L139.88,41.07692634142364L140.4,41.07692634142364L140.92000000000002,35.771149928753175L141.44,45.01346512941214L141.96,41.248075943726775L142.48000000000002,35.60000032645004L143,45.01346512941214L143.52,42.446155804854186L144.04000000000002,48.09423142213089L144.56,42.95961277301495L145.08,39.365381350884064L145.60000000000002,43.47307790242709L146.12,40.22115384615384L146.64,51.17499771484964L147.16,40.90576857786911L147.67999999999998,31.492303774907015L148.2,41.248075943726775L148.72,40.22115384615384L149.23999999999998,37.31153715573822L149.76,39.19423174858093L150.28,36.45577282171982L150.79999999999998,39.19423174858093L151.32,38.167309651008L151.84,45.01346512941214L152.35999999999999,36.969229789880586L152.88,45.01346512941214L153.4,44.5L153.92,43.30192013887259L154.44,41.07692634142364L154.95999999999998,39.19423174858093L155.48,38.68076661916879L156,40.22115384615384L156.51999999999998,41.59038330958441L157.04,43.98653487058786L157.56,36.969229789880586L158.07999999999998,37.65384452159586L158.6,40.392311609708344L159.12,44.157692634142364L159.64,37.65384452159586L160.16,37.14038755343509L160.68,41.761541073138915L161.2,41.59038330958441L161.72,48.607688390291656L162.24,36.969229789880586L162.76,40.22115384615384L163.28,45.526922097572935L163.8,48.26538102443402L164.32,48.950003917400664L164.84,51.00384811254648L165.36,56.480765966268706L165.88,56.651923729823196L166.4,45.355772495269775L166.92000000000002,46.21153682928821L167.44,47.923073658576385L167.96,53.39999967354996L168.48000000000002,48.607688390291656L169,52.030770210119414L169.52,49.97692601497357L170.04000000000002,40.73461897556598L170.56,38.50961701686563L171.08,44.842307365857636L171.6,45.69807986112741L172.12,48.436538787988525L172.64000000000001,35.42884256289554L173.16,41.07692634142364L173.68,45.86922946343057L174.20000000000002,45.1846147317153L174.72,41.59038330958441L175.24,37.99615188745352L175.76000000000002,34.57307822887714L176.28,38.8519243827233L176.8,38.33845925331116L177.32000000000002,42.10384843899655L177.84,41.761541073138915L178.36,39.53653911443857L178.88,42.95961277301495L179.39999999999998,35.94230769230768L179.92,37.82500228515036L180.44,41.761541073138915L180.95999999999998,37.482694919292726L181.48,34.57307822887714L182,39.19423174858093L182.51999999999998,46.72500195870035L183.04,39.365381350884064L183.56,49.46346088556143L184.07999999999998,42.10384843899655L184.6,38.33845925331116L185.12,46.040387226985075L185.64,45.69807986112741L186.16,37.99615188745352L186.68,36.284615058165315L187.2,37.14038755343509L187.72,44.671157763554504L188.23999999999998,30.978846806746247L188.76,39.53653911443857L189.28,37.482694919292726L189.79999999999998,39.365381350884064L190.32,41.59038330958441L190.84,43.13077053656946L191.35999999999999,36.45577282171982L191.88,40.90576857786911L192.4,36.969229789880586L192.92,38.8519243827233L193.44,42.61730540715732L193.96,45.01346512941214L194.48,41.41923370728128L195,42.10384843899655L195.52,47.06730932455798L196.04,42.78846317071182L196.56,52.88653454413782L197.08,44.5L197.6,37.31153715573822L198.12,42.446155804854186L198.64000000000001,40.22115384615384L199.16,39.53653911443857L199.68,44.328842236445524L200.20000000000002,46.89615156100348L200.72,48.26538102443402L201.24,46.040387226985075L201.76000000000002,41.248075943726775L202.28,43.81538526828473L202.8,48.26538102443402L203.32,45.355772495269775L203.84,36.11346545586218L204.36,40.90576857786911L204.88,43.30192013887259L205.4,44.5L205.92000000000002,38.50961701686563L206.44,39.53653911443857L206.96,46.38269459284271L207.48000000000002,42.446155804854186L208,42.446155804854186L208.52,47.238458926861114L209.04000000000002,39.7076887167417L209.56,40.049996082599336L210.08,45.86922946343057L210.60000000000002,41.761541073138915L211.12,43.13077053656946L211.64,47.40961669041562L212.16,48.26538102443402L212.67999999999998,34.91538559473477L213.2,48.950003917400664L213.72,40.73461897556598L214.23999999999998,42.61730540715732L214.76,42.95961277301495L215.28,38.33845925331116L215.79999999999998,36.969229789880586L216.32,36.284615058165315L216.84,39.878846480296204L217.35999999999999,44.842307365857636L217.88,40.73461897556598L218.4,42.61730540715732L218.92,38.8519243827233L219.44,41.59038330958441L219.95999999999998,24.988455662360536L220.48,42.446155804854186L221,39.878846480296204L221.51999999999998,46.040387226985075L222.04,35.086535197037904L222.56,42.10384843899655L223.07999999999998,40.90576857786911L223.6,43.30192013887259L224.12,37.31153715573822L224.64,42.10384843899655L225.16,44.328842236445524L225.68,46.040387226985075L226.2,43.644227504730225L226.72,42.78846317071182L227.24,42.61730540715732L227.76,42.78846317071182L228.28,45.355772495269775L228.8,39.7076887167417L229.32,36.11346545586218L229.84,43.13077053656946L230.36,46.040387226985075L230.88,44.328842236445524L231.4,48.607688390291656L231.92000000000002,37.99615188745352L232.44,35.94230769230768L232.96,45.355772495269775L233.48000000000002,37.482694919292726L234,39.19423174858093L234.52,37.65384452159586L235.04000000000002,40.73461897556598L235.56,36.798080187577455L236.08,42.446155804854186L236.6,38.8519243827233L237.12,41.07692634142364L237.64000000000001,32.34807627017679L238.16,36.284615058165315L238.68,39.7076887167417L239.20000000000002,43.13077053656946L239.72,40.049996082599336" style="fill: none;" fill="none"></path></g></g></g></g></g></g><g transform="translate(70, 178)" clip-path="url(#clip_1)"><clipPath id="clip_1"><rect width="260" height="22"></rect></clipPath><g><g><line x1="0" y1="0" x2="0" y2="5" style="visibility: inherit;" fill="rgb(0, 0, 0)" stroke="rgb(204, 204, 204)" stroke-width="1px"></line><line x1="26" y1="0" x2="26" y2="5" style="visibility: inherit;" fill="rgb(0, 0, 0)" stroke="rgb(204, 204, 204)" stroke-width="1px"></line><line x1="52" y1="0" x2="52" y2="5" style="visibility: inherit;" fill="rgb(0, 0, 0)" stroke="rgb(204, 204, 204)" stroke-width="1px"></line><line x1="78" y1="0" x2="78" y2="5" style="visibility: inherit;" fill="rgb(0, 0, 0)" stroke="rgb(204, 204, 204)" stroke-width="1px"></line><line x1="104" y1="0" x2="104" y2="5" style="visibility: inherit;" fill="rgb(0, 0, 0)" stroke="rgb(204, 204, 204)" stroke-width="1px"></line><line x1="130" y1="0" x2="130" y2="5" style="visibility: inherit;" fill="rgb(0, 0, 0)" stroke="rgb(204, 204, 204)" stroke-width="1px"></line><line x1="156" y1="0" x2="156" y2="5" style="visibility: inherit;" fill="rgb(0, 0, 0)" stroke="rgb(204, 204, 204)" stroke-width="1px"></line><line x1="182" y1="0" x2="182" y2="5" style="visibility: inherit;" fill="rgb(0, 0, 0)" stroke="rgb(204, 204, 204)" stroke-width="1px"></line><line x1="208" y1="0" x2="208" y2="5" style="visibility: inherit;" fill="rgb(0, 0, 0)" stroke="rgb(204, 204, 204)" stroke-width="1px"></line><line x1="234" y1="0" x2="234" y2="5" style="visibility: inherit;" fill="rgb(0, 0, 0)" stroke="rgb(204, 204, 204)" stroke-width="1px"></line><line x1="260" y1="0" x2="260" y2="5" style="visibility: inherit;" fill="rgb(0, 0, 0)" stroke="rgb(204, 204, 204)" stroke-width="1px"></line></g><g transform="translate(0, 8)"><text x="0" y="0" dx="0em" dy="0.95em" style="text-anchor: middle; visibility: hidden; font-family: &quot;Helvetica Neue&quot;, sans-serif; font-size: 12px; font-weight: 200;" fill="rgb(50, 49, 63)" stroke="none" stroke-width="1px">-50</text><text x="26" y="0" dx="0em" dy="0.95em" style="text-anchor: middle; visibility: inherit; font-family: &quot;Helvetica Neue&quot;, sans-serif; font-size: 12px; font-weight: 200;" fill="rgb(50, 49, 63)" stroke="none" stroke-width="1px">0</text><text x="52" y="0" dx="0em" dy="0.95em" style="text-anchor: middle; visibility: hidden; font-family: &quot;Helvetica Neue&quot;, sans-serif; font-size: 12px; font-weight: 200;" fill="rgb(50, 49, 63)" stroke="none" stroke-width="1px">50</text><text x="78" y="0" dx="0em" dy="0.95em" style="text-anchor: middle; visibility: inherit; font-family: &quot;Helvetica Neue&quot;, sans-serif; font-size: 12px; font-weight: 200;" fill="rgb(50, 49, 63)" stroke="none" stroke-width="1px">100</text><text x="104" y="0" dx="0em" dy="0.95em" style="text-anchor: middle; visibility: hidden; font-family: &quot;Helvetica Neue&quot;, sans-serif; font-size: 12px; font-weight: 200;" fill="rgb(50, 49, 63)" stroke="none" stroke-width="1px">150</text><text x="130" y="0" dx="0em" dy="0.95em" style="text-anchor: middle; visibility: inherit; font-family: &quot;Helvetica Neue&quot;, sans-serif; font-size: 12px; font-weight: 200;" fill="rgb(50, 49, 63)" stroke="none" stroke-width="1px">200</text><text x="156" y="0" dx="0em" dy="0.95em" style="text-anchor: middle; visibility: hidden; font-family: &quot;Helvetica Neue&quot;, sans-serif; font-size: 12px; font-weight: 200;" fill="rgb(50, 49, 63)" stroke="none" stroke-width="1px">250</text><text x="182" y="0" dx="0em" dy="0.95em" style="text-anchor: middle; visibility: inherit; font-family: &quot;Helvetica Neue&quot;, sans-serif; font-size: 12px; font-weight: 200;" fill="rgb(50, 49, 63)" stroke="none" stroke-width="1px">300</text><text x="208" y="0" dx="0em" dy="0.95em" style="text-anchor: middle; visibility: hidden; font-family: &quot;Helvetica Neue&quot;, sans-serif; font-size: 12px; font-weight: 200;" fill="rgb(50, 49, 63)" stroke="none" stroke-width="1px">350</text><text x="234" y="0" dx="0em" dy="0.95em" style="text-anchor: middle; visibility: inherit; font-family: &quot;Helvetica Neue&quot;, sans-serif; font-size: 12px; font-weight: 200;" fill="rgb(50, 49, 63)" stroke="none" stroke-width="1px">400</text><text x="260" y="0" dx="0em" dy="0.95em" style="text-anchor: middle; visibility: hidden; font-family: &quot;Helvetica Neue&quot;, sans-serif; font-size: 12px; font-weight: 200;" fill="rgb(50, 49, 63)" stroke="none" stroke-width="1px">450</text></g><line x1="0" y1="0" x2="260" y2="0" fill="rgb(0, 0, 0)" stroke="rgb(204, 204, 204)" stroke-width="1px"></line></g></g></g></g></svg>